M48
; DRILL file {KiCad 8.0.8} date 2025-02-03T17:48:11-0700
; FORMAT={-:-/ absolute / inch / decimal}
; #@! TF.CreationDate,2025-02-03T17:48:11-07:00
; #@! TF.GenerationSoftware,Kicad,Pcbnew,8.0.8
; #@! TF.FileFunction,Plated,1,2,PTH
FMAT,2
INCH
; #@! TA.AperFunction,Plated,PTH,ComponentDrill
T1C0.0315
; #@! TA.AperFunction,Plated,PTH,ComponentDrill
T2C0.0354
; #@! TA.AperFunction,Plated,PTH,ComponentDrill
T3C0.0374
; #@! TA.AperFunction,Plated,PTH,ComponentDrill
T4C0.0394
; #@! TA.AperFunction,Plated,PTH,ComponentDrill
T5C0.0433
; #@! TA.AperFunction,Plated,PTH,ComponentDrill
T6C0.0472
%
G90
G05
T1
X4.1307Y-3.7008
X4.2307Y-3.8008
X4.3307Y-3.7008
T2
X4.8016Y-2.2244
X4.9016Y-2.2244
T3
X4.8819Y-2.6181
X4.8819Y-2.7165
X4.8819Y-2.815
T4
X4.0738Y-2.3069
X4.0738Y-2.4069
X4.0738Y-2.5069
X4.0738Y-2.6069
X4.0738Y-2.7069
X4.0738Y-2.8069
X4.0738Y-2.9069
X4.0738Y-3.0069
X4.677Y-1.937
X4.777Y-1.937
X4.877Y-1.937
X4.977Y-1.937
X5.037Y-3.837
X5.077Y-1.937
X5.137Y-3.837
X5.177Y-1.937
X5.237Y-3.837
X5.277Y-1.937
X5.337Y-3.837
X5.377Y-1.937
X5.437Y-3.837
X5.4677Y-3.0346
X5.477Y-1.937
X5.537Y-3.837
X5.5677Y-3.0346
X5.577Y-1.937
X5.637Y-3.837
X5.6677Y-3.0346
X5.737Y-1.937
X5.737Y-3.837
X5.7677Y-3.0346
X5.837Y-1.937
X5.937Y-1.937
X5.937Y-3.837
X6.037Y-1.937
X6.037Y-3.837
X6.137Y-1.937
X6.137Y-3.837
X6.237Y-1.937
X6.237Y-3.837
X6.337Y-1.937
X6.337Y-3.837
X6.437Y-1.937
X6.437Y-3.837
T5
X4.6063Y-3.2283
X4.6063Y-3.4055
X4.8622Y-3.2283
X4.8622Y-3.4055
X5.0197Y-3.2283
X5.0197Y-3.4055
X5.2756Y-3.2283
X5.2756Y-3.4055
X5.4331Y-3.2283
X5.4331Y-3.4055
X5.689Y-3.2283
X5.689Y-3.4055
X5.8465Y-3.2283
X5.8465Y-3.4055
X6.1024Y-3.2283
X6.1024Y-3.4055
X6.2598Y-3.2283
X6.2598Y-3.4055
X6.5157Y-3.2283
X6.5157Y-3.4055
T6
X5.2165Y-2.1457
X5.2165Y-2.7457
X5.3937Y-2.1409
X5.3937Y-2.7409
X5.5709Y-2.1409
X5.5709Y-2.7409
X5.748Y-2.1409
X5.748Y-2.7409
X5.9252Y-2.1409
X5.9252Y-2.7409
X6.1024Y-2.1409
X6.1024Y-2.7409
M30
