%TF.GenerationSoftware,KiCad,Pcbnew,8.0.8*%
%TF.CreationDate,2025-02-03T17:18:32-07:00*%
%TF.ProjectId,Uno_Shield_ThermoPro,556e6f5f-5368-4696-956c-645f54686572,rev?*%
%TF.SameCoordinates,Original*%
%TF.FileFunction,Copper,L1,Top*%
%TF.FilePolarity,Positive*%
%FSLAX46Y46*%
G04 Gerber Fmt 4.6, Leading zero omitted, Abs format (unit mm)*
G04 Created by KiCad (PCBNEW 8.0.8) date 2025-02-03 17:18:32*
%MOMM*%
%LPD*%
G01*
G04 APERTURE LIST*
G04 Aperture macros list*
%AMRoundRect*
0 Rectangle with rounded corners*
0 $1 Rounding radius*
0 $2 $3 $4 $5 $6 $7 $8 $9 X,Y pos of 4 corners*
0 Add a 4 corners polygon primitive as box body*
4,1,4,$2,$3,$4,$5,$6,$7,$8,$9,$2,$3,0*
0 Add four circle primitives for the rounded corners*
1,1,$1+$1,$2,$3*
1,1,$1+$1,$4,$5*
1,1,$1+$1,$6,$7*
1,1,$1+$1,$8,$9*
0 Add four rect primitives between the rounded corners*
20,1,$1+$1,$2,$3,$4,$5,0*
20,1,$1+$1,$4,$5,$6,$7,0*
20,1,$1+$1,$6,$7,$8,$9,0*
20,1,$1+$1,$8,$9,$2,$3,0*%
G04 Aperture macros list end*
%TA.AperFunction,Conductor*%
%ADD10C,0.150000*%
%TD*%
%TA.AperFunction,ComponentPad*%
%ADD11R,1.700000X1.700000*%
%TD*%
%TA.AperFunction,ComponentPad*%
%ADD12O,1.700000X1.700000*%
%TD*%
%TA.AperFunction,ComponentPad*%
%ADD13C,2.000000*%
%TD*%
%TA.AperFunction,ComponentPad*%
%ADD14RoundRect,0.250000X-0.725000X0.600000X-0.725000X-0.600000X0.725000X-0.600000X0.725000X0.600000X0*%
%TD*%
%TA.AperFunction,ComponentPad*%
%ADD15O,1.950000X1.700000*%
%TD*%
%TA.AperFunction,ComponentPad*%
%ADD16R,1.800000X1.800000*%
%TD*%
%TA.AperFunction,ComponentPad*%
%ADD17C,1.800000*%
%TD*%
%TA.AperFunction,ComponentPad*%
%ADD18C,2.400000*%
%TD*%
%TA.AperFunction,ComponentPad*%
%ADD19O,2.400000X2.400000*%
%TD*%
%TA.AperFunction,ComponentPad*%
%ADD20C,1.440000*%
%TD*%
%TA.AperFunction,Conductor*%
%ADD21C,0.250000*%
%TD*%
G04 APERTURE END LIST*
D10*
%TO.N,/RX{slash}0*%
X157500000Y-55703106D02*
X156000000Y-55703106D01*
X157500000Y-51580000D02*
X157500000Y-55703106D01*
%TD*%
D11*
%TO.P,J1,1,Pin_1*%
%TO.N,unconnected-(J1-Pin_1-Pad1)*%
X127940000Y-97460000D03*
D12*
%TO.P,J1,2,Pin_2*%
%TO.N,/IOREF*%
X130480000Y-97460000D03*
%TO.P,J1,3,Pin_3*%
%TO.N,/~{RESET}*%
X133020000Y-97460000D03*
%TO.P,J1,4,Pin_4*%
%TO.N,+3V3*%
X135560000Y-97460000D03*
%TO.P,J1,5,Pin_5*%
%TO.N,+5V*%
X138100000Y-97460000D03*
%TO.P,J1,6,Pin_6*%
%TO.N,GND*%
X140640000Y-97460000D03*
%TO.P,J1,7,Pin_7*%
X143180000Y-97460000D03*
%TO.P,J1,8,Pin_8*%
%TO.N,VCC*%
X145720000Y-97460000D03*
%TD*%
D11*
%TO.P,J3,1,Pin_1*%
%TO.N,/temp_sensor*%
X150800000Y-97460000D03*
D12*
%TO.P,J3,2,Pin_2*%
%TO.N,/A1*%
X153340000Y-97460000D03*
%TO.P,J3,3,Pin_3*%
%TO.N,/A2*%
X155880000Y-97460000D03*
%TO.P,J3,4,Pin_4*%
%TO.N,/A3*%
X158420000Y-97460000D03*
%TO.P,J3,5,Pin_5*%
%TO.N,/I2C_SDA*%
X160960000Y-97460000D03*
%TO.P,J3,6,Pin_6*%
%TO.N,/I2C_SCL*%
X163500000Y-97460000D03*
%TD*%
D11*
%TO.P,J2,1,Pin_1*%
%TO.N,/I2C_SCL*%
X118796000Y-49200000D03*
D12*
%TO.P,J2,2,Pin_2*%
%TO.N,/I2C_SDA*%
X121336000Y-49200000D03*
%TO.P,J2,3,Pin_3*%
%TO.N,/AREF*%
X123876000Y-49200000D03*
%TO.P,J2,4,Pin_4*%
%TO.N,GND*%
X126416000Y-49200000D03*
%TO.P,J2,5,Pin_5*%
%TO.N,/13*%
X128956000Y-49200000D03*
%TO.P,J2,6,Pin_6*%
%TO.N,/12*%
X131496000Y-49200000D03*
%TO.P,J2,7,Pin_7*%
%TO.N,/\u002A11*%
X134036000Y-49200000D03*
%TO.P,J2,8,Pin_8*%
%TO.N,/\u002A10*%
X136576000Y-49200000D03*
%TO.P,J2,9,Pin_9*%
%TO.N,/LED_light*%
X139116000Y-49200000D03*
%TO.P,J2,10,Pin_10*%
%TO.N,/Temp_Digital*%
X141656000Y-49200000D03*
%TD*%
D11*
%TO.P,J4,1,Pin_1*%
%TO.N,/7*%
X145720000Y-49200000D03*
D12*
%TO.P,J4,2,Pin_2*%
%TO.N,/button_light*%
X148260000Y-49200000D03*
%TO.P,J4,3,Pin_3*%
%TO.N,/button_cal*%
X150800000Y-49200000D03*
%TO.P,J4,4,Pin_4*%
%TO.N,/button_units *%
X153340000Y-49200000D03*
%TO.P,J4,5,Pin_5*%
%TO.N,/button_lock*%
X155880000Y-49200000D03*
%TO.P,J4,6,Pin_6*%
%TO.N,/button_onoff*%
X158420000Y-49200000D03*
%TO.P,J4,7,Pin_7*%
%TO.N,/TX{slash}1*%
X160960000Y-49200000D03*
%TO.P,J4,8,Pin_8*%
%TO.N,/RX{slash}0*%
X163500000Y-49200000D03*
%TD*%
D13*
%TO.P,SW5,1,A*%
%TO.N,/button_light*%
X117000000Y-82000000D03*
X123500000Y-82000000D03*
%TO.P,SW5,2,B*%
%TO.N,+5V*%
X117000000Y-86500000D03*
X123500000Y-86500000D03*
%TD*%
D14*
%TO.P,J7,1,Pin_1*%
%TO.N,GND*%
X124000000Y-66500000D03*
D15*
%TO.P,J7,2,Pin_2*%
%TO.N,/Temp_Digital*%
X124000000Y-69000000D03*
%TO.P,J7,3,Pin_3*%
%TO.N,+5V*%
X124000000Y-71500000D03*
%TD*%
D16*
%TO.P,D1,1,K*%
%TO.N,GND*%
X121960000Y-56500000D03*
D17*
%TO.P,D1,2,A*%
%TO.N,Net-(D1-A)*%
X124500000Y-56500000D03*
%TD*%
D13*
%TO.P,SW2,1,A*%
%TO.N,Net-(SW2-A)*%
X148500000Y-82000000D03*
X155000000Y-82000000D03*
%TO.P,SW2,2,B*%
%TO.N,+5V*%
X148500000Y-86500000D03*
X155000000Y-86500000D03*
%TD*%
D18*
%TO.P,R1,1*%
%TO.N,/button_units *%
X155000000Y-54380000D03*
D19*
%TO.P,R1,2*%
%TO.N,GND*%
X155000000Y-69620000D03*
%TD*%
D18*
%TO.P,R2,1*%
%TO.N,Net-(SW2-A)*%
X150500000Y-54380000D03*
D19*
%TO.P,R2,2*%
%TO.N,GND*%
X150500000Y-69620000D03*
%TD*%
D13*
%TO.P,SW1,1,A*%
%TO.N,/button_units *%
X159000000Y-82000000D03*
X165500000Y-82000000D03*
%TO.P,SW1,2,B*%
%TO.N,+5V*%
X159000000Y-86500000D03*
X165500000Y-86500000D03*
%TD*%
D11*
%TO.P,J6,1,Pin_1*%
%TO.N,GND*%
X146500000Y-77080000D03*
D12*
%TO.P,J6,2,Pin_2*%
%TO.N,+5V*%
X143960000Y-77080000D03*
%TO.P,J6,3,Pin_3*%
%TO.N,/I2C_SCL*%
X141420000Y-77080000D03*
%TO.P,J6,4,Pin_4*%
%TO.N,/I2C_SDA*%
X138880000Y-77080000D03*
%TD*%
D18*
%TO.P,R5,1*%
%TO.N,/button_light*%
X137000000Y-54380000D03*
D19*
%TO.P,R5,2*%
%TO.N,GND*%
X137000000Y-69620000D03*
%TD*%
D20*
%TO.P,RV1,1,1*%
%TO.N,+5V*%
X104920000Y-94000000D03*
%TO.P,RV1,2,2*%
%TO.N,/temp_sensor*%
X107460000Y-96540000D03*
%TO.P,RV1,3,3*%
%TO.N,GND*%
X110000000Y-94000000D03*
%TD*%
D11*
%TO.P,J5,1,Pin_1*%
%TO.N,+5V*%
X103475000Y-76375000D03*
D12*
%TO.P,J5,2,Pin_2*%
%TO.N,GND*%
X103475000Y-73835000D03*
%TO.P,J5,3,Pin_3*%
%TO.N,/I2C_SCL*%
X103475000Y-71295000D03*
%TO.P,J5,4,Pin_4*%
%TO.N,/I2C_SDA*%
X103475000Y-68755000D03*
%TO.P,J5,5,Pin_5*%
%TO.N,unconnected-(J5-Pin_5-Pad5)*%
X103475000Y-66215000D03*
%TO.P,J5,6,Pin_6*%
%TO.N,unconnected-(J5-Pin_6-Pad6)*%
X103475000Y-63675000D03*
%TO.P,J5,7,Pin_7*%
%TO.N,unconnected-(J5-Pin_7-Pad7)*%
X103475000Y-61135000D03*
%TO.P,J5,8,Pin_8*%
%TO.N,unconnected-(J5-Pin_8-Pad8)*%
X103475000Y-58595000D03*
%TD*%
D13*
%TO.P,SW3,1,A*%
%TO.N,/button_cal*%
X138000000Y-82000000D03*
X144500000Y-82000000D03*
%TO.P,SW3,2,B*%
%TO.N,+5V*%
X138000000Y-86500000D03*
X144500000Y-86500000D03*
%TD*%
%TO.P,SW4,1,A*%
%TO.N,/button_lock*%
X127500000Y-82000000D03*
X134000000Y-82000000D03*
%TO.P,SW4,2,B*%
%TO.N,+5V*%
X127500000Y-86500000D03*
X134000000Y-86500000D03*
%TD*%
D18*
%TO.P,R6,1*%
%TO.N,unconnected-(R6-Pad1)*%
X132500000Y-69740000D03*
D19*
%TO.P,R6,2*%
%TO.N,Net-(D1-A)*%
X132500000Y-54500000D03*
%TD*%
D18*
%TO.P,R4,1*%
%TO.N,/button_lock*%
X141500000Y-54380000D03*
D19*
%TO.P,R4,2*%
%TO.N,GND*%
X141500000Y-69620000D03*
%TD*%
D18*
%TO.P,R3,1*%
%TO.N,/button_cal*%
X146000000Y-54380000D03*
D19*
%TO.P,R3,2*%
%TO.N,GND*%
X146000000Y-69620000D03*
%TD*%
D21*
%TO.N,/button_cal*%
X156563083Y-79000000D02*
G75*
G03*
X155817231Y-79308957I17J-1054800D01*
G01*
X162500000Y-71646446D02*
G75*
G03*
X162749984Y-72250016I853500J-54D01*
G01*
X163000000Y-72750000D02*
G75*
G02*
X162823233Y-73176786I-603600J0D01*
G01*
X148026207Y-56406207D02*
G75*
G03*
X151873963Y-58000011I3847793J3847807D01*
G01*
X162500000Y-59999998D02*
G75*
G03*
X160500001Y-58000000I-2000000J-2D01*
G01*
X153494041Y-80994042D02*
G75*
G03*
X154132125Y-80994042I319042J319044D01*
G01*
X146761916Y-80675000D02*
G75*
G03*
X145162495Y-81337495I-16J-2261900D01*
G01*
X157308946Y-78691053D02*
G75*
G02*
X156563083Y-78999990I-745846J745853D01*
G01*
X153494041Y-80994042D02*
G75*
G03*
X152723805Y-80675003I-770241J-770258D01*
G01*
X162823223Y-72323223D02*
G75*
G02*
X162999986Y-72750000I-426823J-426777D01*
G01*
%TO.N,/button_units *%
X163594751Y-56458355D02*
G75*
G03*
X162737104Y-56103103I-857651J-857645D01*
G01*
X163950000Y-79353984D02*
G75*
G03*
X164724995Y-81225005I2646000J-16D01*
G01*
X154170000Y-50030000D02*
G75*
G02*
X155000001Y-52033797I-2003800J-2003800D01*
G01*
X163594751Y-56458355D02*
G75*
G02*
X163949997Y-57316001I-857651J-857645D01*
G01*
X155417157Y-55685948D02*
G75*
G03*
X156424264Y-56103119I1007143J1007148D01*
G01*
%TO.N,/button_light*%
X135251104Y-80112500D02*
G75*
G02*
X133893108Y-80675005I-1358004J1358000D01*
G01*
X161500000Y-61499998D02*
G75*
G03*
X159500001Y-59500000I-2000000J-2D01*
G01*
X125761916Y-80675000D02*
G75*
G03*
X124162495Y-81337495I-16J-2261900D01*
G01*
X137595000Y-54380000D02*
G75*
G03*
X137420676Y-54800780I0J-246500D01*
G01*
X145815000Y-48025000D02*
G75*
G03*
X143646985Y-48923036I0J-3066000D01*
G01*
X140526207Y-57906207D02*
G75*
G03*
X144373963Y-59500011I3847793J3847807D01*
G01*
X161500000Y-69609640D02*
G75*
G02*
X159906198Y-73457387I-5441600J40D01*
G01*
X138610728Y-53959271D02*
G75*
G02*
X137595000Y-54379987I-1015728J1015771D01*
G01*
X147672500Y-48612500D02*
G75*
G03*
X146254149Y-48025021I-1418300J-1418300D01*
G01*
X136609099Y-79550000D02*
G75*
G03*
X135251103Y-80112499I1J-1920500D01*
G01*
X155407396Y-77956207D02*
G75*
G02*
X151559640Y-79550013I-3847796J3847807D01*
G01*
%TO.N,/button_lock*%
X150842677Y-48000000D02*
G75*
G03*
X149981656Y-48356656I23J-1217700D01*
G01*
X162000000Y-60999998D02*
G75*
G03*
X160000001Y-59000000I-2000000J-2D01*
G01*
X144526207Y-57406207D02*
G75*
G03*
X148373963Y-59000011I3847793J3847807D01*
G01*
X149625000Y-49848916D02*
G75*
G02*
X149434297Y-50309297I-651100J16D01*
G01*
X147311802Y-50500000D02*
G75*
G03*
X144014005Y-51865986I-2J-4663800D01*
G01*
X149434302Y-50309302D02*
G75*
G02*
X148973916Y-50500007I-460402J460402D01*
G01*
X135000000Y-81000000D02*
G75*
G02*
X132585786Y-81999994I-2414200J2414200D01*
G01*
X137414213Y-80000000D02*
G75*
G03*
X134999996Y-80999996I-13J-3414200D01*
G01*
X155593792Y-78406207D02*
G75*
G02*
X151746036Y-80000010I-3847792J3847807D01*
G01*
X155280000Y-48600000D02*
G75*
G03*
X153831471Y-48000012I-1448500J-1448500D01*
G01*
X162000000Y-69746036D02*
G75*
G02*
X160406200Y-73593785I-5441600J36D01*
G01*
X149981649Y-48356649D02*
G75*
G03*
X149624990Y-49217677I861051J-861051D01*
G01*
%TO.N,/Temp_Digital*%
X135250000Y-55500000D02*
G75*
G02*
X133659014Y-59340995I-5432000J0D01*
G01*
X139178000Y-50500000D02*
G75*
G03*
X137167038Y-51332981I0J-2843900D01*
G01*
X141006000Y-49850000D02*
G75*
G02*
X139436761Y-50499984I-1569200J1569200D01*
G01*
X136625000Y-51875000D02*
G75*
G03*
X135250018Y-55194543I3319500J-3319500D01*
G01*
%TO.N,/temp_sensor*%
X108381837Y-96000000D02*
G75*
G03*
X107729989Y-96269989I-37J-921800D01*
G01*
X124317500Y-97317500D02*
G75*
G03*
X121136773Y-96000011I-3180700J-3180700D01*
G01*
X150212500Y-98047500D02*
G75*
G02*
X148794149Y-98635021I-1418400J1418400D01*
G01*
X124317500Y-97317500D02*
G75*
G03*
X127498226Y-98634989I3180700J3180700D01*
G01*
%TO.N,Net-(D1-A)*%
X127914213Y-54500000D02*
G75*
G03*
X125499996Y-55499996I-13J-3414200D01*
G01*
%TO.N,Net-(SW2-A)*%
X163500000Y-58999998D02*
G75*
G03*
X161500001Y-57000000I-2000000J-2D01*
G01*
X163500000Y-71246036D02*
G75*
G02*
X161906200Y-75093785I-5441600J36D01*
G01*
X150500000Y-55690000D02*
G75*
G03*
X151810000Y-57000000I1310000J0D01*
G01*
%TO.N,/RX{slash}0*%
X161452375Y-50547624D02*
G75*
G02*
X158960000Y-51579985I-2492375J2492424D01*
G01*
%TO.N,/I2C_SDA*%
X164778579Y-56644615D02*
G75*
G03*
X166372385Y-60492357I5441521J15D01*
G01*
X124152726Y-47550000D02*
G75*
G03*
X122160992Y-48374992I-26J-2816700D01*
G01*
X112250000Y-75750000D02*
G75*
G03*
X112853553Y-76000019I603600J603600D01*
G01*
X138340000Y-76540000D02*
G75*
G03*
X137036324Y-75999990I-1303700J-1303700D01*
G01*
X166786207Y-60906207D02*
G75*
G02*
X168380011Y-64753963I-3847807J-3847793D01*
G01*
X101830656Y-48833118D02*
G75*
G03*
X100685200Y-49307580I-474456J-474482D01*
G01*
X164303579Y-48025000D02*
G75*
G02*
X164778605Y-49171751I-1146779J-1146800D01*
G01*
X100685205Y-63992522D02*
G75*
G03*
X102080109Y-67360095I4762495J22D01*
G01*
X120748500Y-49787500D02*
G75*
G02*
X119330149Y-50375021I-1418400J1418400D01*
G01*
X109590674Y-74870674D02*
G75*
G03*
X111110000Y-75499985I1519326J1519374D01*
G01*
X168380000Y-87786036D02*
G75*
G02*
X166786200Y-91633785I-5441600J36D01*
G01*
X112250000Y-75750000D02*
G75*
G03*
X111646446Y-75500022I-603500J-603500D01*
G01*
X102028871Y-49031333D02*
G75*
G03*
X105272769Y-50375011I3243929J3243933D01*
G01*
X163944749Y-47666170D02*
G75*
G03*
X163664289Y-47549999I-280449J-280430D01*
G01*
X163664289Y-47550000D02*
X163335710Y-47550000D01*
%TO.N,/I2C_SCL*%
X101403510Y-71295000D02*
G75*
G03*
X100552497Y-71647497I-10J-1203500D01*
G01*
X162480000Y-98480000D02*
G75*
G02*
X160017502Y-99500001I-2462500J2462500D01*
G01*
X118709166Y-47150833D02*
G75*
G02*
X118499531Y-47237689I-209666J209633D01*
G01*
X100200000Y-88503890D02*
G75*
G03*
X101793777Y-92351661I5441600J-10D01*
G01*
X140635000Y-77865000D02*
G75*
G02*
X138739842Y-78650018I-1895200J1895200D01*
G01*
X100235205Y-65801241D02*
G75*
G03*
X101829008Y-69648986I5441595J41D01*
G01*
X106729253Y-74549253D02*
G75*
G02*
X107499998Y-76410000I-1860753J-1860747D01*
G01*
X107348353Y-97906207D02*
G75*
G03*
X111196109Y-99499978I3847747J3847807D01*
G01*
X102235203Y-47237667D02*
G75*
G03*
X100235167Y-49237665I-3J-2000033D01*
G01*
X100552500Y-71647500D02*
G75*
G03*
X100200004Y-72498510I851000J-851000D01*
G01*
X108075000Y-78075000D02*
G75*
G03*
X109463172Y-78650011I1388200J1388200D01*
G01*
X107500000Y-76686827D02*
G75*
G03*
X108075008Y-78074992I1963200J27D01*
G01*
X118796000Y-47186801D02*
G75*
G03*
X118709125Y-47150792I-50900J1D01*
G01*
%TO.N,+5V*%
X129603553Y-90896446D02*
G75*
G02*
X128750000Y-91250001I-853553J853546D01*
G01*
X127405000Y-67163198D02*
G75*
G02*
X126746124Y-68753891I-2249600J-2D01*
G01*
X134562500Y-79662500D02*
G75*
G02*
X133204504Y-80225002I-1358000J1358000D01*
G01*
X144000000Y-78075735D02*
G75*
G02*
X143699989Y-78799989I-1024300J35D01*
G01*
X135920495Y-79100000D02*
G75*
G03*
X134562501Y-79662501I5J-1920500D01*
G01*
X143690000Y-65270000D02*
G75*
G03*
X143038162Y-65000016I-651800J-651800D01*
G01*
X116997500Y-95497500D02*
G75*
G03*
X116991464Y-95495015I-6000J-6000D01*
G01*
X154750000Y-90000000D02*
G75*
G03*
X155000000Y-89750000I0J250000D01*
G01*
X155000000Y-89750000D02*
G75*
G03*
X155250000Y-90000000I250000J0D01*
G01*
X131383883Y-90000000D02*
G75*
G03*
X129875005Y-90625005I17J-2133900D01*
G01*
X131125000Y-89375000D02*
G75*
G03*
X131383883Y-90000040I258900J-258900D01*
G01*
X106792893Y-77792893D02*
G75*
G02*
X107500004Y-79500000I-1707093J-1707107D01*
G01*
X135603711Y-94963711D02*
G75*
G03*
X132070000Y-93499994I-3533711J-3533689D01*
G01*
X141125000Y-89875000D02*
G75*
G02*
X140823223Y-90000010I-301800J301800D01*
G01*
X106046751Y-77046751D02*
G75*
G03*
X104425000Y-76374999I-1621751J-1621749D01*
G01*
X129507124Y-65000000D02*
G75*
G03*
X128020691Y-65615691I-24J-2102100D01*
G01*
X143700000Y-78800000D02*
G75*
G02*
X142975735Y-79100015I-724300J724300D01*
G01*
X129823223Y-92823223D02*
G75*
G02*
X129999986Y-93250000I-426823J-426777D01*
G01*
X155676776Y-89823223D02*
G75*
G02*
X155250000Y-89999986I-426776J426823D01*
G01*
X141375000Y-89875000D02*
G75*
G03*
X141676776Y-90000010I301800J301800D01*
G01*
X104197500Y-77097500D02*
G75*
G02*
X104920013Y-78841769I-1744300J-1744300D01*
G01*
X128750000Y-91250000D02*
G75*
G03*
X128603561Y-91603545I0J-207100D01*
G01*
X127896446Y-90896446D02*
G75*
G03*
X128750000Y-91250002I853554J853546D01*
G01*
X107969454Y-80225000D02*
G75*
G03*
X107637534Y-80362534I46J-469400D01*
G01*
X107500000Y-80305545D02*
G75*
G03*
X107637422Y-80362422I80500J45D01*
G01*
X105667500Y-94747500D02*
G75*
G03*
X107472124Y-95494990I1804600J1804600D01*
G01*
X130000000Y-93250000D02*
G75*
G03*
X130250000Y-93500000I250000J0D01*
G01*
X116997500Y-95497500D02*
G75*
G03*
X116999914Y-95496466I1000J1000D01*
G01*
X141375000Y-89875000D02*
G75*
G03*
X141125000Y-89875000I-125000J-124999D01*
G01*
X141375000Y-89625000D02*
G75*
G03*
X141375000Y-89875000I125000J-125000D01*
G01*
X143690000Y-65270000D02*
G75*
G02*
X143959984Y-65921837I-651800J-651800D01*
G01*
X128020698Y-65615698D02*
G75*
G03*
X127405010Y-67102124I1486402J-1486402D01*
G01*
X155250000Y-90000000D02*
X154750000Y-90000000D01*
X129875000Y-90625000D02*
X131125000Y-89375000D01*
X128603553Y-91603553D02*
X127896446Y-90896446D01*
X141125000Y-89875000D02*
X141375000Y-89625000D01*
%TO.N,/I2C_SDA*%
X164778579Y-56644615D02*
X164778579Y-49171751D01*
X164303579Y-48025000D02*
X163944749Y-47666170D01*
X124152726Y-47550000D02*
X163335710Y-47550000D01*
%TO.N,/Temp_Digital*%
X133659009Y-59340990D02*
X124000000Y-69000000D01*
X139178000Y-50500000D02*
X139436761Y-50500000D01*
X141006000Y-49850000D02*
X141656000Y-49200000D01*
X137167028Y-51332971D02*
X136625000Y-51875000D01*
X135250000Y-55500000D02*
X135250000Y-55194543D01*
%TO.N,/button_units *%
X164725000Y-81225000D02*
X165500000Y-82000000D01*
X162737104Y-56103106D02*
X156424264Y-56103106D01*
X163950000Y-79353984D02*
X163950000Y-57316001D01*
X155417157Y-55685948D02*
X155000000Y-55268791D01*
%TO.N,/RX{slash}0*%
X161452375Y-50547624D02*
X163000000Y-49000000D01*
X158960000Y-51580000D02*
X157500000Y-51580000D01*
%TO.N,+5V*%
X104920000Y-94000000D02*
X105667500Y-94747500D01*
X116991464Y-95495000D02*
X107472124Y-95495000D01*
X106792893Y-77792893D02*
X106046751Y-77046751D01*
X117000000Y-95496464D02*
X117000000Y-86500000D01*
X127405000Y-67163198D02*
X127405000Y-67102124D01*
X133204504Y-80225000D02*
X107969454Y-80225000D01*
X155000000Y-86500000D02*
X148500000Y-86500000D01*
X159000000Y-86500000D02*
X165500000Y-86500000D01*
X144500000Y-86500000D02*
X141375000Y-89625000D01*
X107500000Y-79500000D02*
X107500000Y-80305545D01*
X159000000Y-86500000D02*
X155676776Y-89823223D01*
X155000000Y-89750000D02*
X155000000Y-86500000D01*
X135920495Y-79100000D02*
X142975735Y-79100000D01*
X132070000Y-93500000D02*
X130250000Y-93500000D01*
X123500000Y-86500000D02*
X117000000Y-86500000D01*
X129823223Y-92823223D02*
X128603553Y-91603553D01*
X129603553Y-90896446D02*
X129875000Y-90625000D01*
X144500000Y-86500000D02*
X138000000Y-86500000D01*
X104920000Y-78841769D02*
X104920000Y-94000000D01*
X104197500Y-77097500D02*
X103475000Y-76375000D01*
X143960000Y-65921837D02*
X143960000Y-77080000D01*
X131383883Y-90000000D02*
X140823223Y-90000000D01*
X143038162Y-65000000D02*
X129507124Y-65000000D01*
X134000000Y-86500000D02*
X127500000Y-86500000D01*
X144000000Y-78075735D02*
X144000000Y-77120000D01*
X131125000Y-89375000D02*
X134000000Y-86500000D01*
X104425000Y-76375000D02*
X103475000Y-76375000D01*
X126746116Y-68753883D02*
X124000000Y-71500000D01*
%TO.N,/I2C_SCL*%
X118499531Y-47237667D02*
X102235203Y-47237667D01*
X103475000Y-71295000D02*
X101403510Y-71295000D01*
X103475000Y-71295000D02*
X101828997Y-69648997D01*
X100235205Y-65801241D02*
X100235205Y-49237665D01*
X100200000Y-88503890D02*
X100200000Y-72498510D01*
X160017502Y-99500000D02*
X111196109Y-99500000D01*
X118796000Y-47186801D02*
X118796000Y-49200000D01*
X101793792Y-92351646D02*
X107348353Y-97906207D01*
X103475000Y-71295000D02*
X106729253Y-74549253D01*
X162480000Y-98480000D02*
X163500000Y-97460000D01*
X138739842Y-78650000D02*
X109463172Y-78650000D01*
X107500000Y-76410000D02*
X107500000Y-76686827D01*
X140635000Y-77865000D02*
X141420000Y-77080000D01*
%TO.N,/I2C_SDA*%
X119330149Y-50375000D02*
X105272769Y-50375000D01*
X102080102Y-67360102D02*
X103475000Y-68755000D01*
X101830656Y-48833118D02*
X102028871Y-49031333D01*
X120748500Y-49787500D02*
X121336000Y-49200000D01*
X109590674Y-74870674D02*
X103475000Y-68755000D01*
X138340000Y-76540000D02*
X138880000Y-77080000D01*
X112853553Y-76000000D02*
X137036324Y-76000000D01*
X122161000Y-48375000D02*
X121336000Y-49200000D01*
X168380000Y-64753963D02*
X168380000Y-87786036D01*
X166786207Y-91633792D02*
X160960000Y-97460000D01*
X166372371Y-60492371D02*
X166786207Y-60906207D01*
X100685205Y-49307580D02*
X100685205Y-63992522D01*
X111110000Y-75500000D02*
X111646446Y-75500000D01*
%TO.N,Net-(SW2-A)*%
X161500001Y-57000000D02*
X151810000Y-57000000D01*
X155000000Y-82000000D02*
X148500000Y-82000000D01*
X150500000Y-55690000D02*
X150500000Y-54380000D01*
X163500000Y-58999998D02*
X163500000Y-71246036D01*
X155000000Y-82000000D02*
X161906207Y-75093792D01*
%TO.N,Net-(D1-A)*%
X125500000Y-55500000D02*
X124500000Y-56500000D01*
X127914213Y-54500000D02*
X132500000Y-54500000D01*
%TO.N,/temp_sensor*%
X108381837Y-96000000D02*
X121136773Y-96000000D01*
X150212500Y-98047500D02*
X150800000Y-97460000D01*
X148794149Y-98635000D02*
X127498226Y-98635000D01*
X107730000Y-96270000D02*
X107460000Y-96540000D01*
%TO.N,/button_lock*%
X162000000Y-60999998D02*
X162000000Y-69746036D01*
X150842677Y-48000000D02*
X153831471Y-48000000D01*
X155593792Y-78406207D02*
X160406207Y-73593792D01*
X141500000Y-54380000D02*
X144014009Y-51865990D01*
X141500000Y-54380000D02*
X144526207Y-57406207D01*
X149625000Y-49848916D02*
X149625000Y-49217677D01*
X137414213Y-80000000D02*
X151746036Y-80000000D01*
X160000001Y-59000000D02*
X148373963Y-59000000D01*
X132585786Y-82000000D02*
X127500000Y-82000000D01*
X147311802Y-50500000D02*
X148973916Y-50500000D01*
X155280000Y-48600000D02*
X155880000Y-49200000D01*
%TO.N,/button_light*%
X133893108Y-80675000D02*
X125761916Y-80675000D01*
X137420728Y-54800728D02*
X140526207Y-57906207D01*
X147672500Y-48612500D02*
X148260000Y-49200000D01*
X123500000Y-82000000D02*
X117000000Y-82000000D01*
X159906207Y-73457396D02*
X155407396Y-77956207D01*
X159500001Y-59500000D02*
X144373963Y-59500000D01*
X145815000Y-48025000D02*
X146254149Y-48025000D01*
X136609099Y-79550000D02*
X151559640Y-79550000D01*
X161500000Y-61499998D02*
X161500000Y-69609640D01*
X124162500Y-81337500D02*
X123500000Y-82000000D01*
X143646974Y-48923025D02*
X138610728Y-53959271D01*
%TO.N,/button_units *%
X165500000Y-82000000D02*
X159000000Y-82000000D01*
X154170000Y-50030000D02*
X153340000Y-49200000D01*
X155000000Y-52033797D02*
X155000000Y-54380000D01*
%TO.N,/button_cal*%
X144500000Y-82000000D02*
X138000000Y-82000000D01*
X151873963Y-58000000D02*
X160500001Y-58000000D01*
X145162500Y-81337500D02*
X144500000Y-82000000D01*
X146000000Y-54380000D02*
X148026207Y-56406207D01*
X146761916Y-80675000D02*
X152723805Y-80675000D01*
X162500000Y-71646446D02*
X162500000Y-59999998D01*
X146000000Y-54380000D02*
X150800000Y-49580000D01*
X162823223Y-73176776D02*
X157308946Y-78691053D01*
X162750000Y-72250000D02*
X162823223Y-72323223D01*
X155817220Y-79308946D02*
X154132125Y-80994042D01*
%TO.N,+5V*%
X123500000Y-86500000D02*
X127896446Y-90896446D01*
X135603711Y-94963711D02*
X138100000Y-97460000D01*
X154750000Y-90000000D02*
X141676776Y-90000000D01*
%TD*%
M02*
