%TF.GenerationSoftware,KiCad,Pcbnew,8.0.8*%
%TF.CreationDate,2025-03-13T01:40:52-06:00*%
%TF.ProjectId,Ballon Project,42616c6c-6f6e-4205-9072-6f6a6563742e,rev?*%
%TF.SameCoordinates,Original*%
%TF.FileFunction,Copper,L1,Top*%
%TF.FilePolarity,Positive*%
%FSLAX46Y46*%
G04 Gerber Fmt 4.6, Leading zero omitted, Abs format (unit mm)*
G04 Created by KiCad (PCBNEW 8.0.8) date 2025-03-13 01:40:52*
%MOMM*%
%LPD*%
G01*
G04 APERTURE LIST*
G04 Aperture macros list*
%AMRoundRect*
0 Rectangle with rounded corners*
0 $1 Rounding radius*
0 $2 $3 $4 $5 $6 $7 $8 $9 X,Y pos of 4 corners*
0 Add a 4 corners polygon primitive as box body*
4,1,4,$2,$3,$4,$5,$6,$7,$8,$9,$2,$3,0*
0 Add four circle primitives for the rounded corners*
1,1,$1+$1,$2,$3*
1,1,$1+$1,$4,$5*
1,1,$1+$1,$6,$7*
1,1,$1+$1,$8,$9*
0 Add four rect primitives between the rounded corners*
20,1,$1+$1,$2,$3,$4,$5,0*
20,1,$1+$1,$4,$5,$6,$7,0*
20,1,$1+$1,$6,$7,$8,$9,0*
20,1,$1+$1,$8,$9,$2,$3,0*%
G04 Aperture macros list end*
%TA.AperFunction,ComponentPad*%
%ADD10R,1.700000X1.700000*%
%TD*%
%TA.AperFunction,ComponentPad*%
%ADD11O,1.700000X1.700000*%
%TD*%
%TA.AperFunction,ComponentPad*%
%ADD12C,1.321000*%
%TD*%
%TA.AperFunction,ComponentPad*%
%ADD13C,2.400000*%
%TD*%
%TA.AperFunction,ComponentPad*%
%ADD14O,2.400000X2.400000*%
%TD*%
%TA.AperFunction,ComponentPad*%
%ADD15R,1.800000X1.800000*%
%TD*%
%TA.AperFunction,ComponentPad*%
%ADD16C,1.800000*%
%TD*%
%TA.AperFunction,ComponentPad*%
%ADD17R,1.879600X1.879600*%
%TD*%
%TA.AperFunction,ComponentPad*%
%ADD18C,1.879600*%
%TD*%
%TA.AperFunction,ComponentPad*%
%ADD19C,1.508000*%
%TD*%
%TA.AperFunction,ComponentPad*%
%ADD20O,1.100000X2.200000*%
%TD*%
%TA.AperFunction,ComponentPad*%
%ADD21RoundRect,0.250000X-0.600000X-0.725000X0.600000X-0.725000X0.600000X0.725000X-0.600000X0.725000X0*%
%TD*%
%TA.AperFunction,ComponentPad*%
%ADD22O,1.700000X1.950000*%
%TD*%
%TA.AperFunction,Conductor*%
%ADD23C,0.200000*%
%TD*%
%TA.AperFunction,Conductor*%
%ADD24C,0.250000*%
%TD*%
G04 APERTURE END LIST*
D10*
%TO.P,J4,1,Pin_1*%
%TO.N,/LED_Green*%
X134220000Y-60270000D03*
D11*
%TO.P,J4,2,Pin_2*%
%TO.N,unconnected-(J4-Pin_2-Pad2)*%
X136760000Y-60270000D03*
%TO.P,J4,3,Pin_3*%
%TO.N,unconnected-(J4-Pin_3-Pad3)*%
X139300000Y-60270000D03*
%TO.P,J4,4,Pin_4*%
%TO.N,unconnected-(J4-Pin_4-Pad4)*%
X141840000Y-60270000D03*
%TO.P,J4,5,Pin_5*%
%TO.N,unconnected-(J4-Pin_5-Pad5)*%
X144380000Y-60270000D03*
%TO.P,J4,6,Pin_6*%
%TO.N,unconnected-(J4-Pin_6-Pad6)*%
X146920000Y-60270000D03*
%TO.P,J4,7,Pin_7*%
%TO.N,/LED_Blue*%
X149460000Y-60270000D03*
%TO.P,J4,8,Pin_8*%
%TO.N,/Open Log*%
X152000000Y-60270000D03*
%TD*%
D12*
%TO.P,IC1,1,NC_1*%
%TO.N,unconnected-(IC1-NC_1-Pad1)*%
X122920000Y-93000000D03*
%TO.P,IC1,2,VSUPPLY*%
%TO.N,+5V*%
X122920000Y-95540000D03*
%TO.P,IC1,3,VOUT*%
%TO.N,/Pressure Sensor*%
X122920000Y-98080000D03*
%TO.P,IC1,4,GND*%
%TO.N,GND*%
X122920000Y-100620000D03*
%TO.P,IC1,5,NC_2*%
%TO.N,unconnected-(IC1-NC_2-Pad5)*%
X136000000Y-100620000D03*
%TO.P,IC1,6,NC_3*%
%TO.N,unconnected-(IC1-NC_3-Pad6)*%
X136000000Y-98080000D03*
%TO.P,IC1,7,NC_4*%
%TO.N,unconnected-(IC1-NC_4-Pad7)*%
X136000000Y-95540000D03*
%TO.P,IC1,8,NC_5*%
%TO.N,unconnected-(IC1-NC_5-Pad8)*%
X136000000Y-93000000D03*
%TD*%
D13*
%TO.P,R1,1*%
%TO.N,Net-(D1-K)*%
X96380000Y-65350000D03*
D14*
%TO.P,R1,2*%
%TO.N,GND*%
X111620000Y-65350000D03*
%TD*%
D15*
%TO.P,D4,1,K*%
%TO.N,Net-(D4-K)*%
X87960000Y-88560000D03*
D16*
%TO.P,D4,2,A*%
%TO.N,/LED_BlueTwo*%
X90500000Y-88560000D03*
%TD*%
D13*
%TO.P,R6,1*%
%TO.N,Net-(D6-K)*%
X96380000Y-91100000D03*
D14*
%TO.P,R6,2*%
%TO.N,GND*%
X111620000Y-91100000D03*
%TD*%
D13*
%TO.P,R3,1*%
%TO.N,Net-(D3-K)*%
X96380000Y-75650000D03*
D14*
%TO.P,R3,2*%
%TO.N,GND*%
X111620000Y-75650000D03*
%TD*%
D17*
%TO.P,U1,1,BLK*%
%TO.N,unconnected-(U1-BLK-Pad1)*%
X144850000Y-85255000D03*
D18*
%TO.P,U1,2,GND*%
%TO.N,GND*%
X142310000Y-85255000D03*
%TO.P,U1,3,VCC*%
%TO.N,+5V*%
X139770000Y-85255000D03*
%TO.P,U1,4,TXO*%
%TO.N,unconnected-(U1-TXO-Pad4)*%
X137230000Y-85255000D03*
%TO.P,U1,5,RXI*%
%TO.N,/Open Log*%
X134690000Y-85255000D03*
%TO.P,U1,6,GRN*%
%TO.N,unconnected-(U1-GRN-Pad6)*%
X132150000Y-85255000D03*
%TD*%
D13*
%TO.P,R5,1*%
%TO.N,Net-(D5-K)*%
X96380000Y-85950000D03*
D14*
%TO.P,R5,2*%
%TO.N,GND*%
X111620000Y-85950000D03*
%TD*%
D10*
%TO.P,J1,1,Pin_1*%
%TO.N,/.*%
X106860000Y-60270000D03*
D11*
%TO.P,J1,2,Pin_2*%
X109400000Y-60270000D03*
%TO.P,J1,3,Pin_3*%
%TO.N,/AREF*%
X111940000Y-60270000D03*
%TO.P,J1,4,Pin_4*%
%TO.N,GND*%
X114480000Y-60270000D03*
%TO.P,J1,5,Pin_5*%
%TO.N,/13*%
X117020000Y-60270000D03*
%TO.P,J1,6,Pin_6*%
%TO.N,/12*%
X119560000Y-60270000D03*
%TO.P,J1,7,Pin_7*%
%TO.N,/\u002A11*%
X122100000Y-60270000D03*
%TO.P,J1,8,Pin_8*%
%TO.N,/\u002A10*%
X124640000Y-60270000D03*
%TO.P,J1,9,Pin_9*%
%TO.N,unconnected-(J1-Pin_9-Pad9)*%
X127180000Y-60270000D03*
%TO.P,J1,10,Pin_10*%
%TO.N,unconnected-(J1-Pin_10-Pad10)*%
X129720000Y-60270000D03*
%TD*%
D13*
%TO.P,R4,1*%
%TO.N,Net-(D4-K)*%
X96380000Y-80800000D03*
D14*
%TO.P,R4,2*%
%TO.N,GND*%
X111620000Y-80800000D03*
%TD*%
D10*
%TO.P,J5,1,Pin_1*%
%TO.N,+5V*%
X116500000Y-70500000D03*
D11*
%TO.P,J5,2,Pin_2*%
%TO.N,GND*%
X116500000Y-73040000D03*
%TO.P,J5,3,Pin_3*%
%TO.N,/I2C_SCL*%
X116500000Y-75580000D03*
%TO.P,J5,4,Pin_4*%
%TO.N,/I2C_SDA*%
X116500000Y-78120000D03*
%TO.P,J5,5,Pin_5*%
%TO.N,unconnected-(J5-Pin_5-Pad5)*%
X116500000Y-80660000D03*
%TO.P,J5,6,Pin_6*%
%TO.N,unconnected-(J5-Pin_6-Pad6)*%
X116500000Y-83200000D03*
%TO.P,J5,7,Pin_7*%
%TO.N,unconnected-(J5-Pin_7-Pad7)*%
X116500000Y-85740000D03*
%TO.P,J5,8,Pin_8*%
%TO.N,unconnected-(J5-Pin_8-Pad8)*%
X116500000Y-88280000D03*
%TD*%
D15*
%TO.P,D6,1,K*%
%TO.N,Net-(D6-K)*%
X87960000Y-103500000D03*
D16*
%TO.P,D6,2,A*%
%TO.N,/LED_Red*%
X90500000Y-103500000D03*
%TD*%
D15*
%TO.P,D5,1,K*%
%TO.N,Net-(D5-K)*%
X87960000Y-96030000D03*
D16*
%TO.P,D5,2,A*%
%TO.N,/LED_Green*%
X90500000Y-96030000D03*
%TD*%
D10*
%TO.P,J3,1,Pin_1*%
%TO.N,/Temp 1*%
X139720000Y-108770000D03*
D11*
%TO.P,J3,2,Pin_2*%
%TO.N,/Temp 2*%
X142260000Y-108770000D03*
%TO.P,J3,3,Pin_3*%
%TO.N,/Humidity Sensor*%
X144800000Y-108770000D03*
%TO.P,J3,4,Pin_4*%
%TO.N,/Pressure Sensor*%
X147340000Y-108770000D03*
%TO.P,J3,5,Pin_5*%
%TO.N,/I2C_SDA*%
X149880000Y-108770000D03*
%TO.P,J3,6,Pin_6*%
%TO.N,/I2C_SCL*%
X152420000Y-108770000D03*
%TD*%
D10*
%TO.P,J2,1,Pin_1*%
%TO.N,unconnected-(J2-Pin_1-Pad1)*%
X116940000Y-108770000D03*
D11*
%TO.P,J2,2,Pin_2*%
%TO.N,unconnected-(J2-Pin_2-Pad2)*%
X119480000Y-108770000D03*
%TO.P,J2,3,Pin_3*%
%TO.N,unconnected-(J2-Pin_3-Pad3)*%
X122020000Y-108770000D03*
%TO.P,J2,4,Pin_4*%
%TO.N,+3V3*%
X124560000Y-108770000D03*
%TO.P,J2,5,Pin_5*%
%TO.N,+5V*%
X127100000Y-108770000D03*
%TO.P,J2,6,Pin_6*%
%TO.N,GND*%
X129640000Y-108770000D03*
%TO.P,J2,7,Pin_7*%
X132180000Y-108770000D03*
%TO.P,J2,8,Pin_8*%
%TO.N,VCC*%
X134720000Y-108770000D03*
%TD*%
D19*
%TO.P,SENS-1,P$1,VCC*%
%TO.N,+5V*%
X143920000Y-101500000D03*
%TO.P,SENS-1,P$2,DAT*%
%TO.N,/Humidity Sensor*%
X146460000Y-101500000D03*
%TO.P,SENS-1,P$3*%
%TO.N,N/C*%
X149000000Y-101500000D03*
%TO.P,SENS-1,P$4,GND*%
%TO.N,GND*%
X151540000Y-101500000D03*
%TD*%
D13*
%TO.P,R7,1*%
%TO.N,/Temp 1*%
X96760000Y-107500000D03*
D14*
%TO.P,R7,2*%
%TO.N,+5V*%
X112000000Y-107500000D03*
%TD*%
D15*
%TO.P,D2,1,K*%
%TO.N,Net-(D2-K)*%
X87960000Y-73620000D03*
D16*
%TO.P,D2,2,A*%
%TO.N,/LED_Orange*%
X90500000Y-73620000D03*
%TD*%
D15*
%TO.P,D1,1,K*%
%TO.N,Net-(D1-K)*%
X87960000Y-66150000D03*
D16*
%TO.P,D1,2,A*%
%TO.N,/LED_Yellow*%
X90500000Y-66150000D03*
%TD*%
D13*
%TO.P,R2,1*%
%TO.N,Net-(D2-K)*%
X96380000Y-70500000D03*
D14*
%TO.P,R2,2*%
%TO.N,GND*%
X111620000Y-70500000D03*
%TD*%
D20*
%TO.P,U3,1,+VS*%
%TO.N,+5V*%
X110730000Y-100900000D03*
%TO.P,U3,2,VOUT*%
%TO.N,/Temp 2*%
X112000000Y-100900000D03*
%TO.P,U3,3,GND*%
%TO.N,GND*%
X113270000Y-100900000D03*
%TD*%
D15*
%TO.P,D3,1,K*%
%TO.N,Net-(D3-K)*%
X87960000Y-81090000D03*
D16*
%TO.P,D3,2,A*%
%TO.N,/LED_Blue*%
X90500000Y-81090000D03*
%TD*%
D21*
%TO.P,J7,1,Pin_1*%
%TO.N,GND*%
X98000000Y-99475000D03*
D22*
%TO.P,J7,2,Pin_2*%
%TO.N,/Temp 1*%
X100500000Y-99475000D03*
%TO.P,J7,3,Pin_3*%
%TO.N,+5V*%
X103000000Y-99475000D03*
%TD*%
D23*
%TO.N,Net-(D1-K)*%
X95180000Y-64150000D02*
X96380000Y-65350000D01*
X87960000Y-66150000D02*
X89960000Y-64150000D01*
X89960000Y-64150000D02*
X95180000Y-64150000D01*
%TO.N,Net-(D2-K)*%
X91080000Y-70500000D02*
X96380000Y-70500000D01*
X87960000Y-73620000D02*
X91080000Y-70500000D01*
%TO.N,Net-(D3-K)*%
X93400000Y-75650000D02*
X96380000Y-75650000D01*
X87960000Y-81090000D02*
X93400000Y-75650000D01*
%TO.N,/LED_Blue*%
X149460000Y-60270000D02*
X138080000Y-71650000D01*
X94440000Y-77150000D02*
X90500000Y-81090000D01*
X112591321Y-71650000D02*
X107091321Y-77150000D01*
X107091321Y-77150000D02*
X94440000Y-77150000D01*
X138080000Y-71650000D02*
X112591321Y-71650000D01*
%TO.N,Net-(D4-K)*%
X88620000Y-88560000D02*
X96380000Y-80800000D01*
X87960000Y-88560000D02*
X88620000Y-88560000D01*
%TO.N,Net-(D5-K)*%
X87960000Y-96030000D02*
X87960000Y-94370000D01*
X87960000Y-94370000D02*
X96380000Y-85950000D01*
%TO.N,/LED_Green*%
X86760000Y-79890000D02*
X86760000Y-97230000D01*
X87030000Y-97500000D02*
X89030000Y-97500000D01*
X94650000Y-72000000D02*
X86760000Y-79890000D01*
X115350000Y-69350000D02*
X115000000Y-69000000D01*
X134220000Y-60270000D02*
X125140000Y-69350000D01*
X86760000Y-97230000D02*
X87030000Y-97500000D01*
X107998679Y-72000000D02*
X94650000Y-72000000D01*
X115000000Y-69000000D02*
X110998679Y-69000000D01*
X89030000Y-97500000D02*
X90500000Y-96030000D01*
X110998679Y-69000000D02*
X107998679Y-72000000D01*
X125140000Y-69350000D02*
X115350000Y-69350000D01*
%TO.N,Net-(D6-K)*%
X87960000Y-103500000D02*
X96380000Y-95080000D01*
X96380000Y-95080000D02*
X96380000Y-91100000D01*
%TO.N,GND*%
X98000000Y-99475000D02*
X98000000Y-99000000D01*
X151540000Y-101500000D02*
X151540000Y-94485000D01*
X151540000Y-94485000D02*
X142310000Y-85255000D01*
%TO.N,/I2C_SCL*%
X153270000Y-107920000D02*
X153270000Y-91270000D01*
X152420000Y-108770000D02*
X153270000Y-107920000D01*
X153270000Y-91270000D02*
X137580000Y-75580000D01*
X137580000Y-75580000D02*
X116500000Y-75580000D01*
%TO.N,/I2C_SDA*%
X147946000Y-106836000D02*
X147946000Y-92644342D01*
X149880000Y-108770000D02*
X147946000Y-106836000D01*
X134620000Y-78120000D02*
X116500000Y-78120000D01*
X141070200Y-84570200D02*
X134620000Y-78120000D01*
X147946000Y-92644342D02*
X141070200Y-85768542D01*
X141070200Y-85768542D02*
X141070200Y-84570200D01*
%TO.N,+5V*%
X143920000Y-89405000D02*
X139770000Y-85255000D01*
X110730000Y-100900000D02*
X110730000Y-100350000D01*
X125950000Y-109920000D02*
X114420000Y-109920000D01*
X110730000Y-100900000D02*
X104425000Y-100900000D01*
X129485000Y-95540000D02*
X139770000Y-85255000D01*
X114420000Y-109920000D02*
X112000000Y-107500000D01*
X127100000Y-108770000D02*
X125950000Y-109920000D01*
X122920000Y-95540000D02*
X129485000Y-95540000D01*
X112000000Y-107500000D02*
X110730000Y-106230000D01*
X110730000Y-106230000D02*
X110730000Y-100900000D01*
X143920000Y-101500000D02*
X143920000Y-89405000D01*
X110730000Y-100350000D02*
X115540000Y-95540000D01*
X104425000Y-100900000D02*
X103000000Y-99475000D01*
X115540000Y-95540000D02*
X122920000Y-95540000D01*
%TO.N,unconnected-(J2-Pin_3-Pad3)*%
X122020000Y-108770000D02*
X121770000Y-108770000D01*
X121770000Y-108770000D02*
X121500000Y-108500000D01*
%TO.N,/Pressure Sensor*%
X147000000Y-111500000D02*
X147500000Y-111000000D01*
X141110000Y-106890000D02*
X141110000Y-110610000D01*
X142000000Y-111500000D02*
X147000000Y-111500000D01*
X129730000Y-101080000D02*
X135150000Y-106500000D01*
X125920000Y-101080000D02*
X129730000Y-101080000D01*
X141110000Y-110610000D02*
X142000000Y-111500000D01*
X125920000Y-101080000D02*
X125950000Y-101110000D01*
X135150000Y-106500000D02*
X141500000Y-106500000D01*
X122920000Y-98080000D02*
X125920000Y-101080000D01*
X141500000Y-106500000D02*
X141110000Y-106890000D01*
X147340000Y-110840000D02*
X147340000Y-108770000D01*
X147500000Y-111000000D02*
X147340000Y-110840000D01*
%TO.N,/.*%
X109400000Y-60270000D02*
X106860000Y-60270000D01*
%TO.N,/Humidity Sensor*%
X146460000Y-101500000D02*
X144800000Y-103160000D01*
X144800000Y-103160000D02*
X144800000Y-108770000D01*
%TO.N,/Temp 2*%
X130499500Y-96500500D02*
X136000000Y-91000000D01*
X112917918Y-102300000D02*
X117341647Y-102300000D01*
X112000000Y-101382082D02*
X112917918Y-102300000D01*
X142260000Y-96260000D02*
X142260000Y-108770000D01*
X112000000Y-100900000D02*
X112000000Y-101382082D01*
X117341647Y-102300000D02*
X123141147Y-96500500D01*
X136000000Y-91000000D02*
X137000000Y-91000000D01*
X123141147Y-96500500D02*
X130499500Y-96500500D01*
X112000000Y-101450000D02*
X112000000Y-100900000D01*
X137000000Y-91000000D02*
X142260000Y-96260000D01*
%TO.N,/Temp 1*%
X139506645Y-112338053D02*
X139720000Y-112124698D01*
X139720000Y-112124698D02*
X139720000Y-108770000D01*
X97001327Y-112168115D02*
X139506645Y-112338053D01*
X96760000Y-111926788D02*
X97001327Y-112168115D01*
X96760000Y-103215000D02*
X100500000Y-99475000D01*
X96760000Y-107500000D02*
X96760000Y-103215000D01*
X96760000Y-107500000D02*
X96760000Y-111926788D01*
%TO.N,/Open Log*%
X116023654Y-79270000D02*
X115350000Y-78596346D01*
X134690000Y-85255000D02*
X128705000Y-79270000D01*
X115350000Y-78596346D02*
X115350000Y-75103654D01*
X128705000Y-79270000D02*
X116023654Y-79270000D01*
X116023654Y-74430000D02*
X137840000Y-74430000D01*
X137840000Y-74430000D02*
X152000000Y-60270000D01*
X115350000Y-75103654D02*
X116023654Y-74430000D01*
D24*
%TO.N,unconnected-(J4-Pin_2-Pad2)*%
X137180000Y-60510000D02*
X136920000Y-60250000D01*
%TD*%
M02*
