%TF.GenerationSoftware,KiCad,Pcbnew,8.0.8*%
%TF.CreationDate,2025-03-13T01:40:52-06:00*%
%TF.ProjectId,Ballon Project,42616c6c-6f6e-4205-9072-6f6a6563742e,rev?*%
%TF.SameCoordinates,Original*%
%TF.FileFunction,Legend,Top*%
%TF.FilePolarity,Positive*%
%FSLAX46Y46*%
G04 Gerber Fmt 4.6, Leading zero omitted, Abs format (unit mm)*
G04 Created by KiCad (PCBNEW 8.0.8) date 2025-03-13 01:40:52*
%MOMM*%
%LPD*%
G01*
G04 APERTURE LIST*
%ADD10C,0.150000*%
%ADD11C,0.254000*%
%ADD12C,0.120000*%
%ADD13C,0.200000*%
%ADD14C,0.100000*%
%ADD15C,0.127000*%
G04 APERTURE END LIST*
D10*
X136886666Y-55724819D02*
X136886666Y-56439104D01*
X136886666Y-56439104D02*
X136839047Y-56581961D01*
X136839047Y-56581961D02*
X136743809Y-56677200D01*
X136743809Y-56677200D02*
X136600952Y-56724819D01*
X136600952Y-56724819D02*
X136505714Y-56724819D01*
X137791428Y-56058152D02*
X137791428Y-56724819D01*
X137553333Y-55677200D02*
X137315238Y-56391485D01*
X137315238Y-56391485D02*
X137934285Y-56391485D01*
D11*
X129814318Y-98049762D02*
X128544318Y-98049762D01*
X129693365Y-96719285D02*
X129753842Y-96779761D01*
X129753842Y-96779761D02*
X129814318Y-96961190D01*
X129814318Y-96961190D02*
X129814318Y-97082142D01*
X129814318Y-97082142D02*
X129753842Y-97263571D01*
X129753842Y-97263571D02*
X129632889Y-97384523D01*
X129632889Y-97384523D02*
X129511937Y-97445000D01*
X129511937Y-97445000D02*
X129270032Y-97505476D01*
X129270032Y-97505476D02*
X129088603Y-97505476D01*
X129088603Y-97505476D02*
X128846699Y-97445000D01*
X128846699Y-97445000D02*
X128725746Y-97384523D01*
X128725746Y-97384523D02*
X128604794Y-97263571D01*
X128604794Y-97263571D02*
X128544318Y-97082142D01*
X128544318Y-97082142D02*
X128544318Y-96961190D01*
X128544318Y-96961190D02*
X128604794Y-96779761D01*
X128604794Y-96779761D02*
X128665270Y-96719285D01*
X129814318Y-95509761D02*
X129814318Y-96235476D01*
X129814318Y-95872619D02*
X128544318Y-95872619D01*
X128544318Y-95872619D02*
X128725746Y-95993571D01*
X128725746Y-95993571D02*
X128846699Y-96114523D01*
X128846699Y-96114523D02*
X128907175Y-96235476D01*
D10*
X103833333Y-62884819D02*
X103500000Y-62408628D01*
X103261905Y-62884819D02*
X103261905Y-61884819D01*
X103261905Y-61884819D02*
X103642857Y-61884819D01*
X103642857Y-61884819D02*
X103738095Y-61932438D01*
X103738095Y-61932438D02*
X103785714Y-61980057D01*
X103785714Y-61980057D02*
X103833333Y-62075295D01*
X103833333Y-62075295D02*
X103833333Y-62218152D01*
X103833333Y-62218152D02*
X103785714Y-62313390D01*
X103785714Y-62313390D02*
X103738095Y-62361009D01*
X103738095Y-62361009D02*
X103642857Y-62408628D01*
X103642857Y-62408628D02*
X103261905Y-62408628D01*
X104785714Y-62884819D02*
X104214286Y-62884819D01*
X104500000Y-62884819D02*
X104500000Y-61884819D01*
X104500000Y-61884819D02*
X104404762Y-62027676D01*
X104404762Y-62027676D02*
X104309524Y-62122914D01*
X104309524Y-62122914D02*
X104214286Y-62170533D01*
X88491905Y-85054819D02*
X88491905Y-84054819D01*
X88491905Y-84054819D02*
X88730000Y-84054819D01*
X88730000Y-84054819D02*
X88872857Y-84102438D01*
X88872857Y-84102438D02*
X88968095Y-84197676D01*
X88968095Y-84197676D02*
X89015714Y-84292914D01*
X89015714Y-84292914D02*
X89063333Y-84483390D01*
X89063333Y-84483390D02*
X89063333Y-84626247D01*
X89063333Y-84626247D02*
X89015714Y-84816723D01*
X89015714Y-84816723D02*
X88968095Y-84911961D01*
X88968095Y-84911961D02*
X88872857Y-85007200D01*
X88872857Y-85007200D02*
X88730000Y-85054819D01*
X88730000Y-85054819D02*
X88491905Y-85054819D01*
X89920476Y-84388152D02*
X89920476Y-85054819D01*
X89682381Y-84007200D02*
X89444286Y-84721485D01*
X89444286Y-84721485D02*
X90063333Y-84721485D01*
X103833333Y-88634819D02*
X103500000Y-88158628D01*
X103261905Y-88634819D02*
X103261905Y-87634819D01*
X103261905Y-87634819D02*
X103642857Y-87634819D01*
X103642857Y-87634819D02*
X103738095Y-87682438D01*
X103738095Y-87682438D02*
X103785714Y-87730057D01*
X103785714Y-87730057D02*
X103833333Y-87825295D01*
X103833333Y-87825295D02*
X103833333Y-87968152D01*
X103833333Y-87968152D02*
X103785714Y-88063390D01*
X103785714Y-88063390D02*
X103738095Y-88111009D01*
X103738095Y-88111009D02*
X103642857Y-88158628D01*
X103642857Y-88158628D02*
X103261905Y-88158628D01*
X104690476Y-87634819D02*
X104500000Y-87634819D01*
X104500000Y-87634819D02*
X104404762Y-87682438D01*
X104404762Y-87682438D02*
X104357143Y-87730057D01*
X104357143Y-87730057D02*
X104261905Y-87872914D01*
X104261905Y-87872914D02*
X104214286Y-88063390D01*
X104214286Y-88063390D02*
X104214286Y-88444342D01*
X104214286Y-88444342D02*
X104261905Y-88539580D01*
X104261905Y-88539580D02*
X104309524Y-88587200D01*
X104309524Y-88587200D02*
X104404762Y-88634819D01*
X104404762Y-88634819D02*
X104595238Y-88634819D01*
X104595238Y-88634819D02*
X104690476Y-88587200D01*
X104690476Y-88587200D02*
X104738095Y-88539580D01*
X104738095Y-88539580D02*
X104785714Y-88444342D01*
X104785714Y-88444342D02*
X104785714Y-88206247D01*
X104785714Y-88206247D02*
X104738095Y-88111009D01*
X104738095Y-88111009D02*
X104690476Y-88063390D01*
X104690476Y-88063390D02*
X104595238Y-88015771D01*
X104595238Y-88015771D02*
X104404762Y-88015771D01*
X104404762Y-88015771D02*
X104309524Y-88063390D01*
X104309524Y-88063390D02*
X104261905Y-88111009D01*
X104261905Y-88111009D02*
X104214286Y-88206247D01*
X103833333Y-73184819D02*
X103500000Y-72708628D01*
X103261905Y-73184819D02*
X103261905Y-72184819D01*
X103261905Y-72184819D02*
X103642857Y-72184819D01*
X103642857Y-72184819D02*
X103738095Y-72232438D01*
X103738095Y-72232438D02*
X103785714Y-72280057D01*
X103785714Y-72280057D02*
X103833333Y-72375295D01*
X103833333Y-72375295D02*
X103833333Y-72518152D01*
X103833333Y-72518152D02*
X103785714Y-72613390D01*
X103785714Y-72613390D02*
X103738095Y-72661009D01*
X103738095Y-72661009D02*
X103642857Y-72708628D01*
X103642857Y-72708628D02*
X103261905Y-72708628D01*
X104166667Y-72184819D02*
X104785714Y-72184819D01*
X104785714Y-72184819D02*
X104452381Y-72565771D01*
X104452381Y-72565771D02*
X104595238Y-72565771D01*
X104595238Y-72565771D02*
X104690476Y-72613390D01*
X104690476Y-72613390D02*
X104738095Y-72661009D01*
X104738095Y-72661009D02*
X104785714Y-72756247D01*
X104785714Y-72756247D02*
X104785714Y-72994342D01*
X104785714Y-72994342D02*
X104738095Y-73089580D01*
X104738095Y-73089580D02*
X104690476Y-73137200D01*
X104690476Y-73137200D02*
X104595238Y-73184819D01*
X104595238Y-73184819D02*
X104309524Y-73184819D01*
X104309524Y-73184819D02*
X104214286Y-73137200D01*
X104214286Y-73137200D02*
X104166667Y-73089580D01*
X133043095Y-65044819D02*
X133043095Y-65854342D01*
X133043095Y-65854342D02*
X133090714Y-65949580D01*
X133090714Y-65949580D02*
X133138333Y-65997200D01*
X133138333Y-65997200D02*
X133233571Y-66044819D01*
X133233571Y-66044819D02*
X133424047Y-66044819D01*
X133424047Y-66044819D02*
X133519285Y-65997200D01*
X133519285Y-65997200D02*
X133566904Y-65949580D01*
X133566904Y-65949580D02*
X133614523Y-65854342D01*
X133614523Y-65854342D02*
X133614523Y-65044819D01*
X134614523Y-66044819D02*
X134043095Y-66044819D01*
X134328809Y-66044819D02*
X134328809Y-65044819D01*
X134328809Y-65044819D02*
X134233571Y-65187676D01*
X134233571Y-65187676D02*
X134138333Y-65282914D01*
X134138333Y-65282914D02*
X134043095Y-65330533D01*
X103833333Y-83484819D02*
X103500000Y-83008628D01*
X103261905Y-83484819D02*
X103261905Y-82484819D01*
X103261905Y-82484819D02*
X103642857Y-82484819D01*
X103642857Y-82484819D02*
X103738095Y-82532438D01*
X103738095Y-82532438D02*
X103785714Y-82580057D01*
X103785714Y-82580057D02*
X103833333Y-82675295D01*
X103833333Y-82675295D02*
X103833333Y-82818152D01*
X103833333Y-82818152D02*
X103785714Y-82913390D01*
X103785714Y-82913390D02*
X103738095Y-82961009D01*
X103738095Y-82961009D02*
X103642857Y-83008628D01*
X103642857Y-83008628D02*
X103261905Y-83008628D01*
X104738095Y-82484819D02*
X104261905Y-82484819D01*
X104261905Y-82484819D02*
X104214286Y-82961009D01*
X104214286Y-82961009D02*
X104261905Y-82913390D01*
X104261905Y-82913390D02*
X104357143Y-82865771D01*
X104357143Y-82865771D02*
X104595238Y-82865771D01*
X104595238Y-82865771D02*
X104690476Y-82913390D01*
X104690476Y-82913390D02*
X104738095Y-82961009D01*
X104738095Y-82961009D02*
X104785714Y-83056247D01*
X104785714Y-83056247D02*
X104785714Y-83294342D01*
X104785714Y-83294342D02*
X104738095Y-83389580D01*
X104738095Y-83389580D02*
X104690476Y-83437200D01*
X104690476Y-83437200D02*
X104595238Y-83484819D01*
X104595238Y-83484819D02*
X104357143Y-83484819D01*
X104357143Y-83484819D02*
X104261905Y-83437200D01*
X104261905Y-83437200D02*
X104214286Y-83389580D01*
X106886666Y-55224819D02*
X106886666Y-55939104D01*
X106886666Y-55939104D02*
X106839047Y-56081961D01*
X106839047Y-56081961D02*
X106743809Y-56177200D01*
X106743809Y-56177200D02*
X106600952Y-56224819D01*
X106600952Y-56224819D02*
X106505714Y-56224819D01*
X107886666Y-56224819D02*
X107315238Y-56224819D01*
X107600952Y-56224819D02*
X107600952Y-55224819D01*
X107600952Y-55224819D02*
X107505714Y-55367676D01*
X107505714Y-55367676D02*
X107410476Y-55462914D01*
X107410476Y-55462914D02*
X107315238Y-55510533D01*
X103833333Y-78334819D02*
X103500000Y-77858628D01*
X103261905Y-78334819D02*
X103261905Y-77334819D01*
X103261905Y-77334819D02*
X103642857Y-77334819D01*
X103642857Y-77334819D02*
X103738095Y-77382438D01*
X103738095Y-77382438D02*
X103785714Y-77430057D01*
X103785714Y-77430057D02*
X103833333Y-77525295D01*
X103833333Y-77525295D02*
X103833333Y-77668152D01*
X103833333Y-77668152D02*
X103785714Y-77763390D01*
X103785714Y-77763390D02*
X103738095Y-77811009D01*
X103738095Y-77811009D02*
X103642857Y-77858628D01*
X103642857Y-77858628D02*
X103261905Y-77858628D01*
X104690476Y-77668152D02*
X104690476Y-78334819D01*
X104452381Y-77287200D02*
X104214286Y-78001485D01*
X104214286Y-78001485D02*
X104833333Y-78001485D01*
X116166666Y-67184819D02*
X116166666Y-67899104D01*
X116166666Y-67899104D02*
X116119047Y-68041961D01*
X116119047Y-68041961D02*
X116023809Y-68137200D01*
X116023809Y-68137200D02*
X115880952Y-68184819D01*
X115880952Y-68184819D02*
X115785714Y-68184819D01*
X117119047Y-67184819D02*
X116642857Y-67184819D01*
X116642857Y-67184819D02*
X116595238Y-67661009D01*
X116595238Y-67661009D02*
X116642857Y-67613390D01*
X116642857Y-67613390D02*
X116738095Y-67565771D01*
X116738095Y-67565771D02*
X116976190Y-67565771D01*
X116976190Y-67565771D02*
X117071428Y-67613390D01*
X117071428Y-67613390D02*
X117119047Y-67661009D01*
X117119047Y-67661009D02*
X117166666Y-67756247D01*
X117166666Y-67756247D02*
X117166666Y-67994342D01*
X117166666Y-67994342D02*
X117119047Y-68089580D01*
X117119047Y-68089580D02*
X117071428Y-68137200D01*
X117071428Y-68137200D02*
X116976190Y-68184819D01*
X116976190Y-68184819D02*
X116738095Y-68184819D01*
X116738095Y-68184819D02*
X116642857Y-68137200D01*
X116642857Y-68137200D02*
X116595238Y-68089580D01*
X88491905Y-99994819D02*
X88491905Y-98994819D01*
X88491905Y-98994819D02*
X88730000Y-98994819D01*
X88730000Y-98994819D02*
X88872857Y-99042438D01*
X88872857Y-99042438D02*
X88968095Y-99137676D01*
X88968095Y-99137676D02*
X89015714Y-99232914D01*
X89015714Y-99232914D02*
X89063333Y-99423390D01*
X89063333Y-99423390D02*
X89063333Y-99566247D01*
X89063333Y-99566247D02*
X89015714Y-99756723D01*
X89015714Y-99756723D02*
X88968095Y-99851961D01*
X88968095Y-99851961D02*
X88872857Y-99947200D01*
X88872857Y-99947200D02*
X88730000Y-99994819D01*
X88730000Y-99994819D02*
X88491905Y-99994819D01*
X89920476Y-98994819D02*
X89730000Y-98994819D01*
X89730000Y-98994819D02*
X89634762Y-99042438D01*
X89634762Y-99042438D02*
X89587143Y-99090057D01*
X89587143Y-99090057D02*
X89491905Y-99232914D01*
X89491905Y-99232914D02*
X89444286Y-99423390D01*
X89444286Y-99423390D02*
X89444286Y-99804342D01*
X89444286Y-99804342D02*
X89491905Y-99899580D01*
X89491905Y-99899580D02*
X89539524Y-99947200D01*
X89539524Y-99947200D02*
X89634762Y-99994819D01*
X89634762Y-99994819D02*
X89825238Y-99994819D01*
X89825238Y-99994819D02*
X89920476Y-99947200D01*
X89920476Y-99947200D02*
X89968095Y-99899580D01*
X89968095Y-99899580D02*
X90015714Y-99804342D01*
X90015714Y-99804342D02*
X90015714Y-99566247D01*
X90015714Y-99566247D02*
X89968095Y-99471009D01*
X89968095Y-99471009D02*
X89920476Y-99423390D01*
X89920476Y-99423390D02*
X89825238Y-99375771D01*
X89825238Y-99375771D02*
X89634762Y-99375771D01*
X89634762Y-99375771D02*
X89539524Y-99423390D01*
X89539524Y-99423390D02*
X89491905Y-99471009D01*
X89491905Y-99471009D02*
X89444286Y-99566247D01*
X88491905Y-92524819D02*
X88491905Y-91524819D01*
X88491905Y-91524819D02*
X88730000Y-91524819D01*
X88730000Y-91524819D02*
X88872857Y-91572438D01*
X88872857Y-91572438D02*
X88968095Y-91667676D01*
X88968095Y-91667676D02*
X89015714Y-91762914D01*
X89015714Y-91762914D02*
X89063333Y-91953390D01*
X89063333Y-91953390D02*
X89063333Y-92096247D01*
X89063333Y-92096247D02*
X89015714Y-92286723D01*
X89015714Y-92286723D02*
X88968095Y-92381961D01*
X88968095Y-92381961D02*
X88872857Y-92477200D01*
X88872857Y-92477200D02*
X88730000Y-92524819D01*
X88730000Y-92524819D02*
X88491905Y-92524819D01*
X89968095Y-91524819D02*
X89491905Y-91524819D01*
X89491905Y-91524819D02*
X89444286Y-92001009D01*
X89444286Y-92001009D02*
X89491905Y-91953390D01*
X89491905Y-91953390D02*
X89587143Y-91905771D01*
X89587143Y-91905771D02*
X89825238Y-91905771D01*
X89825238Y-91905771D02*
X89920476Y-91953390D01*
X89920476Y-91953390D02*
X89968095Y-92001009D01*
X89968095Y-92001009D02*
X90015714Y-92096247D01*
X90015714Y-92096247D02*
X90015714Y-92334342D01*
X90015714Y-92334342D02*
X89968095Y-92429580D01*
X89968095Y-92429580D02*
X89920476Y-92477200D01*
X89920476Y-92477200D02*
X89825238Y-92524819D01*
X89825238Y-92524819D02*
X89587143Y-92524819D01*
X89587143Y-92524819D02*
X89491905Y-92477200D01*
X89491905Y-92477200D02*
X89444286Y-92429580D01*
X139386666Y-113454819D02*
X139386666Y-114169104D01*
X139386666Y-114169104D02*
X139339047Y-114311961D01*
X139339047Y-114311961D02*
X139243809Y-114407200D01*
X139243809Y-114407200D02*
X139100952Y-114454819D01*
X139100952Y-114454819D02*
X139005714Y-114454819D01*
X139767619Y-113454819D02*
X140386666Y-113454819D01*
X140386666Y-113454819D02*
X140053333Y-113835771D01*
X140053333Y-113835771D02*
X140196190Y-113835771D01*
X140196190Y-113835771D02*
X140291428Y-113883390D01*
X140291428Y-113883390D02*
X140339047Y-113931009D01*
X140339047Y-113931009D02*
X140386666Y-114026247D01*
X140386666Y-114026247D02*
X140386666Y-114264342D01*
X140386666Y-114264342D02*
X140339047Y-114359580D01*
X140339047Y-114359580D02*
X140291428Y-114407200D01*
X140291428Y-114407200D02*
X140196190Y-114454819D01*
X140196190Y-114454819D02*
X139910476Y-114454819D01*
X139910476Y-114454819D02*
X139815238Y-114407200D01*
X139815238Y-114407200D02*
X139767619Y-114359580D01*
X116386666Y-113454819D02*
X116386666Y-114169104D01*
X116386666Y-114169104D02*
X116339047Y-114311961D01*
X116339047Y-114311961D02*
X116243809Y-114407200D01*
X116243809Y-114407200D02*
X116100952Y-114454819D01*
X116100952Y-114454819D02*
X116005714Y-114454819D01*
X116815238Y-113550057D02*
X116862857Y-113502438D01*
X116862857Y-113502438D02*
X116958095Y-113454819D01*
X116958095Y-113454819D02*
X117196190Y-113454819D01*
X117196190Y-113454819D02*
X117291428Y-113502438D01*
X117291428Y-113502438D02*
X117339047Y-113550057D01*
X117339047Y-113550057D02*
X117386666Y-113645295D01*
X117386666Y-113645295D02*
X117386666Y-113740533D01*
X117386666Y-113740533D02*
X117339047Y-113883390D01*
X117339047Y-113883390D02*
X116767619Y-114454819D01*
X116767619Y-114454819D02*
X117386666Y-114454819D01*
X145945223Y-98753618D02*
X146035212Y-98783614D01*
X146035212Y-98783614D02*
X146185193Y-98783614D01*
X146185193Y-98783614D02*
X146245186Y-98753618D01*
X146245186Y-98753618D02*
X146275182Y-98723621D01*
X146275182Y-98723621D02*
X146305178Y-98663629D01*
X146305178Y-98663629D02*
X146305178Y-98603636D01*
X146305178Y-98603636D02*
X146275182Y-98543644D01*
X146275182Y-98543644D02*
X146245186Y-98513648D01*
X146245186Y-98513648D02*
X146185193Y-98483651D01*
X146185193Y-98483651D02*
X146065208Y-98453655D01*
X146065208Y-98453655D02*
X146005216Y-98423659D01*
X146005216Y-98423659D02*
X145975220Y-98393663D01*
X145975220Y-98393663D02*
X145945223Y-98333670D01*
X145945223Y-98333670D02*
X145945223Y-98273678D01*
X145945223Y-98273678D02*
X145975220Y-98213685D01*
X145975220Y-98213685D02*
X146005216Y-98183689D01*
X146005216Y-98183689D02*
X146065208Y-98153693D01*
X146065208Y-98153693D02*
X146215190Y-98153693D01*
X146215190Y-98153693D02*
X146305178Y-98183689D01*
X146575145Y-98453655D02*
X146785118Y-98453655D01*
X146875107Y-98783614D02*
X146575145Y-98783614D01*
X146575145Y-98783614D02*
X146575145Y-98153693D01*
X146575145Y-98153693D02*
X146875107Y-98153693D01*
X147145074Y-98783614D02*
X147145074Y-98153693D01*
X147145074Y-98153693D02*
X147505029Y-98783614D01*
X147505029Y-98783614D02*
X147505029Y-98153693D01*
X147774994Y-98753618D02*
X147864983Y-98783614D01*
X147864983Y-98783614D02*
X148014964Y-98783614D01*
X148014964Y-98783614D02*
X148074957Y-98753618D01*
X148074957Y-98753618D02*
X148104953Y-98723621D01*
X148104953Y-98723621D02*
X148134949Y-98663629D01*
X148134949Y-98663629D02*
X148134949Y-98603636D01*
X148134949Y-98603636D02*
X148104953Y-98543644D01*
X148104953Y-98543644D02*
X148074957Y-98513648D01*
X148074957Y-98513648D02*
X148014964Y-98483651D01*
X148014964Y-98483651D02*
X147894979Y-98453655D01*
X147894979Y-98453655D02*
X147834987Y-98423659D01*
X147834987Y-98423659D02*
X147804991Y-98393663D01*
X147804991Y-98393663D02*
X147774994Y-98333670D01*
X147774994Y-98333670D02*
X147774994Y-98273678D01*
X147774994Y-98273678D02*
X147804991Y-98213685D01*
X147804991Y-98213685D02*
X147834987Y-98183689D01*
X147834987Y-98183689D02*
X147894979Y-98153693D01*
X147894979Y-98153693D02*
X148044961Y-98153693D01*
X148044961Y-98153693D02*
X148134949Y-98183689D01*
X148404916Y-98543644D02*
X148884856Y-98543644D01*
X149514776Y-98783614D02*
X149154821Y-98783614D01*
X149334799Y-98783614D02*
X149334799Y-98153693D01*
X149334799Y-98153693D02*
X149274806Y-98243681D01*
X149274806Y-98243681D02*
X149214814Y-98303674D01*
X149214814Y-98303674D02*
X149154821Y-98333670D01*
X104213333Y-105034819D02*
X103880000Y-104558628D01*
X103641905Y-105034819D02*
X103641905Y-104034819D01*
X103641905Y-104034819D02*
X104022857Y-104034819D01*
X104022857Y-104034819D02*
X104118095Y-104082438D01*
X104118095Y-104082438D02*
X104165714Y-104130057D01*
X104165714Y-104130057D02*
X104213333Y-104225295D01*
X104213333Y-104225295D02*
X104213333Y-104368152D01*
X104213333Y-104368152D02*
X104165714Y-104463390D01*
X104165714Y-104463390D02*
X104118095Y-104511009D01*
X104118095Y-104511009D02*
X104022857Y-104558628D01*
X104022857Y-104558628D02*
X103641905Y-104558628D01*
X104546667Y-104034819D02*
X105213333Y-104034819D01*
X105213333Y-104034819D02*
X104784762Y-105034819D01*
X88491905Y-70114819D02*
X88491905Y-69114819D01*
X88491905Y-69114819D02*
X88730000Y-69114819D01*
X88730000Y-69114819D02*
X88872857Y-69162438D01*
X88872857Y-69162438D02*
X88968095Y-69257676D01*
X88968095Y-69257676D02*
X89015714Y-69352914D01*
X89015714Y-69352914D02*
X89063333Y-69543390D01*
X89063333Y-69543390D02*
X89063333Y-69686247D01*
X89063333Y-69686247D02*
X89015714Y-69876723D01*
X89015714Y-69876723D02*
X88968095Y-69971961D01*
X88968095Y-69971961D02*
X88872857Y-70067200D01*
X88872857Y-70067200D02*
X88730000Y-70114819D01*
X88730000Y-70114819D02*
X88491905Y-70114819D01*
X89444286Y-69210057D02*
X89491905Y-69162438D01*
X89491905Y-69162438D02*
X89587143Y-69114819D01*
X89587143Y-69114819D02*
X89825238Y-69114819D01*
X89825238Y-69114819D02*
X89920476Y-69162438D01*
X89920476Y-69162438D02*
X89968095Y-69210057D01*
X89968095Y-69210057D02*
X90015714Y-69305295D01*
X90015714Y-69305295D02*
X90015714Y-69400533D01*
X90015714Y-69400533D02*
X89968095Y-69543390D01*
X89968095Y-69543390D02*
X89396667Y-70114819D01*
X89396667Y-70114819D02*
X90015714Y-70114819D01*
X88491905Y-62644819D02*
X88491905Y-61644819D01*
X88491905Y-61644819D02*
X88730000Y-61644819D01*
X88730000Y-61644819D02*
X88872857Y-61692438D01*
X88872857Y-61692438D02*
X88968095Y-61787676D01*
X88968095Y-61787676D02*
X89015714Y-61882914D01*
X89015714Y-61882914D02*
X89063333Y-62073390D01*
X89063333Y-62073390D02*
X89063333Y-62216247D01*
X89063333Y-62216247D02*
X89015714Y-62406723D01*
X89015714Y-62406723D02*
X88968095Y-62501961D01*
X88968095Y-62501961D02*
X88872857Y-62597200D01*
X88872857Y-62597200D02*
X88730000Y-62644819D01*
X88730000Y-62644819D02*
X88491905Y-62644819D01*
X90015714Y-62644819D02*
X89444286Y-62644819D01*
X89730000Y-62644819D02*
X89730000Y-61644819D01*
X89730000Y-61644819D02*
X89634762Y-61787676D01*
X89634762Y-61787676D02*
X89539524Y-61882914D01*
X89539524Y-61882914D02*
X89444286Y-61930533D01*
X103833333Y-68034819D02*
X103500000Y-67558628D01*
X103261905Y-68034819D02*
X103261905Y-67034819D01*
X103261905Y-67034819D02*
X103642857Y-67034819D01*
X103642857Y-67034819D02*
X103738095Y-67082438D01*
X103738095Y-67082438D02*
X103785714Y-67130057D01*
X103785714Y-67130057D02*
X103833333Y-67225295D01*
X103833333Y-67225295D02*
X103833333Y-67368152D01*
X103833333Y-67368152D02*
X103785714Y-67463390D01*
X103785714Y-67463390D02*
X103738095Y-67511009D01*
X103738095Y-67511009D02*
X103642857Y-67558628D01*
X103642857Y-67558628D02*
X103261905Y-67558628D01*
X104214286Y-67130057D02*
X104261905Y-67082438D01*
X104261905Y-67082438D02*
X104357143Y-67034819D01*
X104357143Y-67034819D02*
X104595238Y-67034819D01*
X104595238Y-67034819D02*
X104690476Y-67082438D01*
X104690476Y-67082438D02*
X104738095Y-67130057D01*
X104738095Y-67130057D02*
X104785714Y-67225295D01*
X104785714Y-67225295D02*
X104785714Y-67320533D01*
X104785714Y-67320533D02*
X104738095Y-67463390D01*
X104738095Y-67463390D02*
X104166667Y-68034819D01*
X104166667Y-68034819D02*
X104785714Y-68034819D01*
X111411972Y-96312786D02*
X111411972Y-97123858D01*
X111411972Y-97123858D02*
X111459682Y-97219278D01*
X111459682Y-97219278D02*
X111507393Y-97266989D01*
X111507393Y-97266989D02*
X111602813Y-97314699D01*
X111602813Y-97314699D02*
X111793653Y-97314699D01*
X111793653Y-97314699D02*
X111889074Y-97266989D01*
X111889074Y-97266989D02*
X111936784Y-97219278D01*
X111936784Y-97219278D02*
X111984494Y-97123858D01*
X111984494Y-97123858D02*
X111984494Y-96312786D01*
X112366175Y-96312786D02*
X112986407Y-96312786D01*
X112986407Y-96312786D02*
X112652436Y-96694467D01*
X112652436Y-96694467D02*
X112795566Y-96694467D01*
X112795566Y-96694467D02*
X112890987Y-96742177D01*
X112890987Y-96742177D02*
X112938697Y-96789887D01*
X112938697Y-96789887D02*
X112986407Y-96885307D01*
X112986407Y-96885307D02*
X112986407Y-97123858D01*
X112986407Y-97123858D02*
X112938697Y-97219278D01*
X112938697Y-97219278D02*
X112890987Y-97266989D01*
X112890987Y-97266989D02*
X112795566Y-97314699D01*
X112795566Y-97314699D02*
X112509305Y-97314699D01*
X112509305Y-97314699D02*
X112413885Y-97266989D01*
X112413885Y-97266989D02*
X112366175Y-97219278D01*
X88491905Y-77584819D02*
X88491905Y-76584819D01*
X88491905Y-76584819D02*
X88730000Y-76584819D01*
X88730000Y-76584819D02*
X88872857Y-76632438D01*
X88872857Y-76632438D02*
X88968095Y-76727676D01*
X88968095Y-76727676D02*
X89015714Y-76822914D01*
X89015714Y-76822914D02*
X89063333Y-77013390D01*
X89063333Y-77013390D02*
X89063333Y-77156247D01*
X89063333Y-77156247D02*
X89015714Y-77346723D01*
X89015714Y-77346723D02*
X88968095Y-77441961D01*
X88968095Y-77441961D02*
X88872857Y-77537200D01*
X88872857Y-77537200D02*
X88730000Y-77584819D01*
X88730000Y-77584819D02*
X88491905Y-77584819D01*
X89396667Y-76584819D02*
X90015714Y-76584819D01*
X90015714Y-76584819D02*
X89682381Y-76965771D01*
X89682381Y-76965771D02*
X89825238Y-76965771D01*
X89825238Y-76965771D02*
X89920476Y-77013390D01*
X89920476Y-77013390D02*
X89968095Y-77061009D01*
X89968095Y-77061009D02*
X90015714Y-77156247D01*
X90015714Y-77156247D02*
X90015714Y-77394342D01*
X90015714Y-77394342D02*
X89968095Y-77489580D01*
X89968095Y-77489580D02*
X89920476Y-77537200D01*
X89920476Y-77537200D02*
X89825238Y-77584819D01*
X89825238Y-77584819D02*
X89539524Y-77584819D01*
X89539524Y-77584819D02*
X89444286Y-77537200D01*
X89444286Y-77537200D02*
X89396667Y-77489580D01*
X100166666Y-95379819D02*
X100166666Y-96094104D01*
X100166666Y-96094104D02*
X100119047Y-96236961D01*
X100119047Y-96236961D02*
X100023809Y-96332200D01*
X100023809Y-96332200D02*
X99880952Y-96379819D01*
X99880952Y-96379819D02*
X99785714Y-96379819D01*
X100547619Y-95379819D02*
X101214285Y-95379819D01*
X101214285Y-95379819D02*
X100785714Y-96379819D01*
D12*
%TO.C,J4*%
X132890000Y-58940000D02*
X134220000Y-58940000D01*
X132890000Y-60270000D02*
X132890000Y-58940000D01*
X135490000Y-58940000D02*
X153330000Y-58940000D01*
X135490000Y-61600000D02*
X135490000Y-58940000D01*
X135490000Y-61600000D02*
X153330000Y-61600000D01*
X153330000Y-61600000D02*
X153330000Y-58940000D01*
D13*
%TO.C,IC1*%
X121920000Y-92750000D02*
X121920000Y-92750000D01*
X121920000Y-92950000D02*
X121920000Y-92950000D01*
D14*
X122810000Y-91810000D02*
X136110000Y-91810000D01*
X136110000Y-101810000D02*
X122810000Y-101810000D01*
D13*
X121920000Y-92750000D02*
G75*
G02*
X121920000Y-92950000I0J-100000D01*
G01*
X121920000Y-92950000D02*
G75*
G02*
X121920000Y-92750000I0J100000D01*
G01*
D12*
%TO.C,R1*%
X97820000Y-65350000D02*
X98930000Y-65350000D01*
X98930000Y-63430000D02*
X98930000Y-67270000D01*
X98930000Y-67270000D02*
X109070000Y-67270000D01*
X109070000Y-63430000D02*
X98930000Y-63430000D01*
X109070000Y-67270000D02*
X109070000Y-63430000D01*
X110180000Y-65350000D02*
X109070000Y-65350000D01*
%TO.C,D4*%
X86670000Y-87015000D02*
X86670000Y-90105000D01*
X86670000Y-87015170D02*
G75*
G02*
X92220000Y-88559952I2560000J-1544830D01*
G01*
X92220000Y-88560048D02*
G75*
G02*
X86670000Y-90104830I-2990000J48D01*
G01*
X91730000Y-88560000D02*
G75*
G02*
X86730000Y-88560000I-2500000J0D01*
G01*
X86730000Y-88560000D02*
G75*
G02*
X91730000Y-88560000I2500000J0D01*
G01*
%TO.C,R6*%
X97820000Y-91100000D02*
X98930000Y-91100000D01*
X98930000Y-89180000D02*
X98930000Y-93020000D01*
X98930000Y-93020000D02*
X109070000Y-93020000D01*
X109070000Y-89180000D02*
X98930000Y-89180000D01*
X109070000Y-93020000D02*
X109070000Y-89180000D01*
X110180000Y-91100000D02*
X109070000Y-91100000D01*
%TO.C,R3*%
X97820000Y-75650000D02*
X98930000Y-75650000D01*
X98930000Y-73730000D02*
X98930000Y-77570000D01*
X98930000Y-77570000D02*
X109070000Y-77570000D01*
X109070000Y-73730000D02*
X98930000Y-73730000D01*
X109070000Y-77570000D02*
X109070000Y-73730000D01*
X110180000Y-75650000D02*
X109070000Y-75650000D01*
D15*
%TO.C,U1*%
X130880000Y-67475000D02*
X146120000Y-67475000D01*
X130880000Y-86525000D02*
X130880000Y-67475000D01*
X146120000Y-67475000D02*
X146120000Y-86525000D01*
X146120000Y-86525000D02*
X130880000Y-86525000D01*
D13*
X146970000Y-85255000D02*
G75*
G02*
X146770000Y-85255000I-100000J0D01*
G01*
X146770000Y-85255000D02*
G75*
G02*
X146970000Y-85255000I100000J0D01*
G01*
D12*
%TO.C,R5*%
X97820000Y-85950000D02*
X98930000Y-85950000D01*
X98930000Y-84030000D02*
X98930000Y-87870000D01*
X98930000Y-87870000D02*
X109070000Y-87870000D01*
X109070000Y-84030000D02*
X98930000Y-84030000D01*
X109070000Y-87870000D02*
X109070000Y-84030000D01*
X110180000Y-85950000D02*
X109070000Y-85950000D01*
%TO.C,J1*%
X105530000Y-58940000D02*
X106860000Y-58940000D01*
X105530000Y-60270000D02*
X105530000Y-58940000D01*
X108130000Y-58940000D02*
X131050000Y-58940000D01*
X108130000Y-61600000D02*
X108130000Y-58940000D01*
X108130000Y-61600000D02*
X131050000Y-61600000D01*
X131050000Y-61600000D02*
X131050000Y-58940000D01*
%TO.C,R4*%
X97820000Y-80800000D02*
X98930000Y-80800000D01*
X98930000Y-78880000D02*
X98930000Y-82720000D01*
X98930000Y-82720000D02*
X109070000Y-82720000D01*
X109070000Y-78880000D02*
X98930000Y-78880000D01*
X109070000Y-82720000D02*
X109070000Y-78880000D01*
X110180000Y-80800000D02*
X109070000Y-80800000D01*
%TO.C,J5*%
X115170000Y-71770000D02*
X115170000Y-89610000D01*
X115170000Y-71770000D02*
X117830000Y-71770000D01*
X115170000Y-89610000D02*
X117830000Y-89610000D01*
X116500000Y-69170000D02*
X117830000Y-69170000D01*
X117830000Y-69170000D02*
X117830000Y-70500000D01*
X117830000Y-71770000D02*
X117830000Y-89610000D01*
%TO.C,D6*%
X86670000Y-101955000D02*
X86670000Y-105045000D01*
X86670000Y-101955170D02*
G75*
G02*
X92220000Y-103499952I2560000J-1544830D01*
G01*
X92220000Y-103500048D02*
G75*
G02*
X86670000Y-105044830I-2990000J48D01*
G01*
X91730000Y-103500000D02*
G75*
G02*
X86730000Y-103500000I-2500000J0D01*
G01*
X86730000Y-103500000D02*
G75*
G02*
X91730000Y-103500000I2500000J0D01*
G01*
%TO.C,D5*%
X86670000Y-94485000D02*
X86670000Y-97575000D01*
X86670000Y-94485170D02*
G75*
G02*
X92220000Y-96029952I2560000J-1544830D01*
G01*
X92220000Y-96030048D02*
G75*
G02*
X86670000Y-97574830I-2990000J48D01*
G01*
X91730000Y-96030000D02*
G75*
G02*
X86730000Y-96030000I-2500000J0D01*
G01*
X86730000Y-96030000D02*
G75*
G02*
X91730000Y-96030000I2500000J0D01*
G01*
%TO.C,J3*%
X138390000Y-107440000D02*
X139720000Y-107440000D01*
X138390000Y-108770000D02*
X138390000Y-107440000D01*
X140990000Y-107440000D02*
X153750000Y-107440000D01*
X140990000Y-110100000D02*
X140990000Y-107440000D01*
X140990000Y-110100000D02*
X153750000Y-110100000D01*
X153750000Y-110100000D02*
X153750000Y-107440000D01*
%TO.C,J2*%
X115610000Y-107440000D02*
X116940000Y-107440000D01*
X115610000Y-108770000D02*
X115610000Y-107440000D01*
X118210000Y-107440000D02*
X136050000Y-107440000D01*
X118210000Y-110100000D02*
X118210000Y-107440000D01*
X118210000Y-110100000D02*
X136050000Y-110100000D01*
X136050000Y-110100000D02*
X136050000Y-107440000D01*
D15*
%TO.C,SENS-1*%
X141730000Y-99250000D02*
X153730000Y-99250000D01*
X141730000Y-103750000D02*
X141730000Y-99250000D01*
X141980000Y-101750000D02*
X142230000Y-102000000D01*
X142230000Y-101000000D02*
X142230000Y-102000000D01*
X142230000Y-102000000D02*
X141980000Y-101750000D01*
X142230000Y-102000000D02*
X142480000Y-101750000D01*
X153730000Y-99250000D02*
X153730000Y-103750000D01*
X153730000Y-103750000D02*
X141730000Y-103750000D01*
D12*
%TO.C,R7*%
X98200000Y-107500000D02*
X99310000Y-107500000D01*
X99310000Y-105580000D02*
X99310000Y-109420000D01*
X99310000Y-109420000D02*
X109450000Y-109420000D01*
X109450000Y-105580000D02*
X99310000Y-105580000D01*
X109450000Y-109420000D02*
X109450000Y-105580000D01*
X110560000Y-107500000D02*
X109450000Y-107500000D01*
%TO.C,D2*%
X86670000Y-72075000D02*
X86670000Y-75165000D01*
X86670000Y-72075170D02*
G75*
G02*
X92220000Y-73619952I2560000J-1544830D01*
G01*
X92220000Y-73620048D02*
G75*
G02*
X86670000Y-75164830I-2990000J48D01*
G01*
X91730000Y-73620000D02*
G75*
G02*
X86730000Y-73620000I-2500000J0D01*
G01*
X86730000Y-73620000D02*
G75*
G02*
X91730000Y-73620000I2500000J0D01*
G01*
%TO.C,D1*%
X86670000Y-64605000D02*
X86670000Y-67695000D01*
X86670000Y-64605170D02*
G75*
G02*
X92220000Y-66149952I2560000J-1544830D01*
G01*
X92220000Y-66150048D02*
G75*
G02*
X86670000Y-67694830I-2990000J48D01*
G01*
X91730000Y-66150000D02*
G75*
G02*
X86730000Y-66150000I-2500000J0D01*
G01*
X86730000Y-66150000D02*
G75*
G02*
X91730000Y-66150000I2500000J0D01*
G01*
%TO.C,R2*%
X97820000Y-70500000D02*
X98930000Y-70500000D01*
X98930000Y-68580000D02*
X98930000Y-72420000D01*
X98930000Y-72420000D02*
X109070000Y-72420000D01*
X109070000Y-68580000D02*
X98930000Y-68580000D01*
X109070000Y-72420000D02*
X109070000Y-68580000D01*
X110180000Y-70500000D02*
X109070000Y-70500000D01*
D15*
%TO.C,U3*%
X109400000Y-100600000D02*
X109900000Y-102200000D01*
X109900000Y-102200000D02*
X114100000Y-102200000D01*
X114100000Y-102200000D02*
X114600000Y-100600000D01*
X109400000Y-100538000D02*
G75*
G02*
X114600000Y-100538000I2600000J45383D01*
G01*
D13*
X109000000Y-101100000D02*
G75*
G02*
X108600000Y-101100000I-200000J0D01*
G01*
X108600000Y-101100000D02*
G75*
G02*
X109000000Y-101100000I200000J0D01*
G01*
D12*
%TO.C,D3*%
X86670000Y-79545000D02*
X86670000Y-82635000D01*
X86670000Y-79545170D02*
G75*
G02*
X92220000Y-81089952I2560000J-1544830D01*
G01*
X92220000Y-81090048D02*
G75*
G02*
X86670000Y-82634830I-2990000J48D01*
G01*
X91730000Y-81090000D02*
G75*
G02*
X86730000Y-81090000I-2500000J0D01*
G01*
X86730000Y-81090000D02*
G75*
G02*
X91730000Y-81090000I2500000J0D01*
G01*
%TO.C,J7*%
X95150000Y-96725000D02*
X95150000Y-97975000D01*
X95440000Y-97015000D02*
X95440000Y-102985000D01*
X95440000Y-102985000D02*
X105560000Y-102985000D01*
X95450000Y-97025000D02*
X95450000Y-97775000D01*
X95450000Y-97775000D02*
X97250000Y-97775000D01*
X95450000Y-99275000D02*
X96200000Y-99275000D01*
X96200000Y-99275000D02*
X96200000Y-102225000D01*
X96200000Y-102225000D02*
X100500000Y-102225000D01*
X96400000Y-96725000D02*
X95150000Y-96725000D01*
X97250000Y-97025000D02*
X95450000Y-97025000D01*
X97250000Y-97775000D02*
X97250000Y-97025000D01*
X98750000Y-97025000D02*
X98750000Y-97775000D01*
X98750000Y-97775000D02*
X102250000Y-97775000D01*
X102250000Y-97025000D02*
X98750000Y-97025000D01*
X102250000Y-97775000D02*
X102250000Y-97025000D01*
X103750000Y-97025000D02*
X103750000Y-97775000D01*
X103750000Y-97775000D02*
X105550000Y-97775000D01*
X104800000Y-99275000D02*
X104800000Y-102225000D01*
X104800000Y-102225000D02*
X100500000Y-102225000D01*
X105550000Y-97025000D02*
X103750000Y-97025000D01*
X105550000Y-97775000D02*
X105550000Y-97025000D01*
X105550000Y-99275000D02*
X104800000Y-99275000D01*
X105560000Y-97015000D02*
X95440000Y-97015000D01*
X105560000Y-102985000D02*
X105560000Y-97015000D01*
%TD*%
M02*
